<?xml version="1.0" encoding="UTF-8"?>
<!DOCTYPE svg PUBLIC "-//W3C//DTD SVG 1.1//EN" "http://www.w3.org/Graphics/SVG/1.1/DTD/svg11.dtd">
<!-- Creator: CorelDRAW X7 -->
<svg xmlns="http://www.w3.org/2000/svg" xml:space="preserve" width="100%" height="100%" version="1.1" style="shape-rendering:geometricPrecision; text-rendering:geometricPrecision; image-rendering:optimizeQuality; fill-rule:evenodd; clip-rule:evenodd"
viewBox="0 0 6102 5493"
 xmlns:xlink="http://www.w3.org/1999/xlink"
 enable-background="new 0 0 612 792">
 <defs>
  <style type="text/css">
   <![CDATA[
    .fil151 {fill:none}
    .fil0 {fill:#FEFEFE}
    .fil74 {fill:url(#id1)}
    .fil128 {fill:url(#id2)}
    .fil28 {fill:url(#id3)}
    .fil32 {fill:url(#id4)}
    .fil117 {fill:url(#id5)}
    .fil11 {fill:url(#id6)}
    .fil24 {fill:url(#id7)}
    .fil27 {fill:url(#id8)}
    .fil150 {fill:url(#id9)}
    .fil3 {fill:url(#id10)}
    .fil42 {fill:url(#id11)}
    .fil65 {fill:url(#id12)}
    .fil72 {fill:url(#id13)}
    .fil16 {fill:url(#id14)}
    .fil102 {fill:url(#id15)}
    .fil89 {fill:url(#id16)}
    .fil122 {fill:url(#id17)}
    .fil71 {fill:url(#id18)}
    .fil10 {fill:url(#id19)}
    .fil90 {fill:url(#id20)}
    .fil98 {fill:url(#id21)}
    .fil88 {fill:url(#id22)}
    .fil1 {fill:url(#id23)}
    .fil126 {fill:url(#id24)}
    .fil104 {fill:url(#id25)}
    .fil21 {fill:url(#id26)}
    .fil66 {fill:url(#id27)}
    .fil59 {fill:url(#id28)}
    .fil100 {fill:url(#id29)}
    .fil55 {fill:url(#id30)}
    .fil94 {fill:url(#id31)}
    .fil67 {fill:url(#id32)}
    .fil139 {fill:url(#id33)}
    .fil5 {fill:url(#id34)}
    .fil148 {fill:url(#id35)}
    .fil9 {fill:url(#id36)}
    .fil106 {fill:url(#id37)}
    .fil78 {fill:url(#id38)}
    .fil91 {fill:url(#id39)}
    .fil81 {fill:url(#id40)}
    .fil123 {fill:url(#id41)}
    .fil97 {fill:url(#id42)}
    .fil96 {fill:url(#id43)}
    .fil39 {fill:url(#id44)}
    .fil63 {fill:url(#id45)}
    .fil83 {fill:url(#id46)}
    .fil85 {fill:url(#id47)}
    .fil93 {fill:url(#id48)}
    .fil84 {fill:url(#id49)}
    .fil101 {fill:url(#id50)}
    .fil137 {fill:url(#id51)}
    .fil33 {fill:url(#id52)}
    .fil34 {fill:url(#id53)}
    .fil136 {fill:url(#id54)}
    .fil61 {fill:url(#id55)}
    .fil140 {fill:url(#id56)}
    .fil125 {fill:url(#id57)}
    .fil75 {fill:url(#id58)}
    .fil62 {fill:url(#id59)}
    .fil110 {fill:url(#id60)}
    .fil113 {fill:url(#id61)}
    .fil127 {fill:url(#id62)}
    .fil124 {fill:url(#id63)}
    .fil69 {fill:url(#id64)}
    .fil36 {fill:url(#id65)}
    .fil15 {fill:url(#id66)}
    .fil2 {fill:url(#id67)}
    .fil77 {fill:url(#id68)}
    .fil146 {fill:url(#id69)}
    .fil82 {fill:url(#id70)}
    .fil6 {fill:url(#id71)}
    .fil57 {fill:url(#id72)}
    .fil30 {fill:url(#id73)}
    .fil56 {fill:url(#id74)}
    .fil119 {fill:url(#id75)}
    .fil116 {fill:url(#id76)}
    .fil70 {fill:url(#id77)}
    .fil60 {fill:url(#id78)}
    .fil54 {fill:url(#id79)}
    .fil131 {fill:url(#id80)}
    .fil76 {fill:url(#id81)}
    .fil105 {fill:url(#id82)}
    .fil73 {fill:url(#id83)}
    .fil17 {fill:url(#id84)}
    .fil29 {fill:url(#id85)}
    .fil35 {fill:url(#id86)}
    .fil22 {fill:url(#id87)}
    .fil44 {fill:url(#id88)}
    .fil95 {fill:url(#id89)}
    .fil4 {fill:url(#id90)}
    .fil80 {fill:url(#id91)}
    .fil25 {fill:url(#id92)}
    .fil58 {fill:url(#id93)}
    .fil87 {fill:url(#id94)}
    .fil133 {fill:url(#id95)}
    .fil134 {fill:url(#id96)}
    .fil107 {fill:url(#id97)}
    .fil12 {fill:url(#id98)}
    .fil112 {fill:url(#id99)}
    .fil118 {fill:url(#id100)}
    .fil135 {fill:url(#id101)}
    .fil51 {fill:url(#id102)}
    .fil144 {fill:url(#id103)}
    .fil103 {fill:url(#id104)}
    .fil141 {fill:url(#id105)}
    .fil111 {fill:url(#id106)}
    .fil143 {fill:url(#id107)}
    .fil38 {fill:url(#id108)}
    .fil147 {fill:url(#id109)}
    .fil31 {fill:url(#id110)}
    .fil138 {fill:url(#id111)}
    .fil142 {fill:url(#id112)}
    .fil13 {fill:url(#id113)}
    .fil92 {fill:url(#id114)}
    .fil99 {fill:url(#id115)}
    .fil114 {fill:url(#id116)}
    .fil108 {fill:url(#id117)}
    .fil130 {fill:url(#id118)}
    .fil46 {fill:url(#id119)}
    .fil48 {fill:url(#id120)}
    .fil79 {fill:url(#id121)}
    .fil109 {fill:url(#id122)}
    .fil52 {fill:url(#id123)}
    .fil115 {fill:url(#id124)}
    .fil40 {fill:url(#id125)}
    .fil50 {fill:url(#id126)}
    .fil26 {fill:url(#id127)}
    .fil64 {fill:url(#id128)}
    .fil129 {fill:url(#id129)}
    .fil49 {fill:url(#id130)}
    .fil37 {fill:url(#id131)}
    .fil45 {fill:url(#id132)}
    .fil53 {fill:url(#id133)}
    .fil47 {fill:url(#id134)}
    .fil41 {fill:url(#id135)}
    .fil149 {fill:url(#id136)}
    .fil14 {fill:url(#id137)}
    .fil23 {fill:url(#id138)}
    .fil20 {fill:url(#id139)}
    .fil68 {fill:url(#id140)}
    .fil19 {fill:url(#id141)}
    .fil8 {fill:url(#id142)}
    .fil121 {fill:url(#id143)}
    .fil7 {fill:url(#id144)}
    .fil145 {fill:url(#id145)}
    .fil120 {fill:url(#id146)}
    .fil43 {fill:url(#id147)}
    .fil86 {fill:url(#id148)}
    .fil132 {fill:url(#id149)}
    .fil18 {fill:url(#id150)}
   ]]>
  </style>
   <clipPath id="id0">
    <path d="M2459 995c197,-75 412,-105 616,-105 152,0 328,26 527,78 201,52 388,121 561,206l-64 814 -79 -66c-22,-60 -47,-125 -75,-193 -29,-70 -53,-132 -76,-188 -47,-119 -123,-222 -228,-310 -104,-88 -221,-146 -353,-176l-5 5c-92,-22 -173,-33 -243,-33 -182,0 -339,34 -470,104l-111 -136zm488 1984c-4,-1 -9,-3 -13,-4 1,-2 3,-4 5,-6l8 10zm1098 1337c-121,91 -262,155 -408,199 -163,48 -344,72 -543,72 -226,0 -463,-24 -710,-72 -248,-49 -463,-113 -646,-195l67 -815 78 67c13,26 27,56 39,87 13,31 24,61 33,86 78,191 205,348 381,473 176,125 375,198 596,221 57,7 113,5 170,5 260,0 470,-61 628,-181 60,-46 108,-97 146,-153l169 206zm1916 -4265c0,11 -11,33 -37,66 -13,22 -23,42 -29,58l-84 0c-152,6 -275,56 -370,149 -96,94 -143,219 -143,375l0 3998 0 729 -341 0 -360 -438 -3489 -4249 0 3883c0,157 47,283 142,381 95,97 220,145 372,145l86 0 66 125 -666 0 -141 0 -131 0 -663 0c20,-50 33,-80 42,-92 10,-11 18,-22 25,-33l85 0c151,0 275,-48 369,-145 95,-98 142,-224 142,-381l0 -3920c0,-158 -47,-282 -142,-378 -94,-93 -218,-143 -369,-149l-85 0c-13,-16 -26,-36 -39,-58 -18,-22 -28,-44 -28,-66 215,11 438,11 673,0l131 0 141 0 569 0 3350 4096 0 -3445c0,-158 -47,-282 -143,-378 -95,-93 -220,-143 -372,-149l-85 0c-13,-16 -26,-36 -37,-58 -20,-22 -30,-44 -30,-66 215,11 442,11 676,0l131 0 141 0c234,11 454,11 663,0l-20 0z"/>
   </clipPath>
  <linearGradient id="id1" gradientUnits="userSpaceOnUse" x1="-3463.56" y1="-1386.46" x2="5610.01" y2="7763.43">
   <stop offset="0" style="stop-opacity:1; stop-color:#F68B1F"/>
   <stop offset="0.34902" style="stop-opacity:1; stop-color:#ED1B71"/>
   <stop offset="0.721569" style="stop-opacity:1; stop-color:#34A6DE"/>
   <stop offset="1" style="stop-opacity:1; stop-color:#8AC871"/>
  </linearGradient>
  <linearGradient id="id2" gradientUnits="userSpaceOnUse" xlink:href="#id1" x1="-3351.24" y1="-2161.4" x2="6332.93" y2="7522.07">
  </linearGradient>
  <linearGradient id="id3" gradientUnits="userSpaceOnUse" xlink:href="#id1" x1="-1853.06" y1="-3588.04" x2="7622.31" y2="5867.33">
  </linearGradient>
  <linearGradient id="id4" gradientUnits="userSpaceOnUse" xlink:href="#id1" x1="-3735.4" y1="-1337.81" x2="5700.64" y2="8119.31">
  </linearGradient>
  <linearGradient id="id5" gradientUnits="userSpaceOnUse" xlink:href="#id1" x1="-972.972" y1="-4598.26" x2="8483.8" y2="4858.5">
  </linearGradient>
  <linearGradient id="id6" gradientUnits="userSpaceOnUse" xlink:href="#id1" x1="-1566.82" y1="-3946.95" x2="7909.69" y2="5550.63">
  </linearGradient>
  <linearGradient id="id7" gradientUnits="userSpaceOnUse" xlink:href="#id1" x1="826" y1="-214.925" x2="1615.95" y2="647.358">
  </linearGradient>
  <linearGradient id="id8" gradientUnits="userSpaceOnUse" xlink:href="#id1" x1="-3982.7" y1="-1063.03" x2="5473.52" y2="8413.69">
  </linearGradient>
  <linearGradient id="id9" gradientUnits="userSpaceOnUse" xlink:href="#id1" x1="-5072.93" y1="218.087" x2="4362.91" y2="9674.46">
  </linearGradient>
  <linearGradient id="id10" gradientUnits="userSpaceOnUse" xlink:href="#id1" x1="-2532.19" y1="-4128.45" x2="3468.51" y2="1690.9">
  </linearGradient>
  <linearGradient id="id11" gradientUnits="userSpaceOnUse" xlink:href="#id1" x1="2682.87" y1="4314.97" x2="3907.62" y2="6155.67">
  </linearGradient>
  <linearGradient id="id12" gradientUnits="userSpaceOnUse" xlink:href="#id1" x1="-3276.09" y1="-1761.8" x2="6031.26" y2="7545.62">
  </linearGradient>
  <linearGradient id="id13" gradientUnits="userSpaceOnUse" xlink:href="#id1" x1="1161.06" y1="3667.49" x2="4036.68" y2="6637.41">
  </linearGradient>
  <linearGradient id="id14" gradientUnits="userSpaceOnUse" xlink:href="#id1" x1="-1599.4" y1="-3911.26" x2="7896.58" y2="5563.96">
  </linearGradient>
  <linearGradient id="id15" gradientUnits="userSpaceOnUse" xlink:href="#id1" x1="-1907.81" y1="-3521.06" x2="7588.3" y2="5955.45">
  </linearGradient>
  <linearGradient id="id16" gradientUnits="userSpaceOnUse" xlink:href="#id1" x1="2166.75" y1="4553.11" x2="2166.83" y2="4553.2">
  </linearGradient>
  <linearGradient id="id17" gradientUnits="userSpaceOnUse" xlink:href="#id1" x1="-2914.37" y1="-2239.65" x2="6479.45" y2="7154.33">
  </linearGradient>
  <linearGradient id="id18" gradientUnits="userSpaceOnUse" xlink:href="#id1" x1="-3141.11" y1="-2155.11" x2="6377.09" y2="7362.88">
  </linearGradient>
  <linearGradient id="id19" gradientUnits="userSpaceOnUse" xlink:href="#id1" x1="-2488.66" y1="-2821.26" x2="6967.69" y2="6635.1">
  </linearGradient>
  <linearGradient id="id20" gradientUnits="userSpaceOnUse" xlink:href="#id1" x1="-3400.78" y1="-1209.05" x2="5647.28" y2="7838.83">
  </linearGradient>
  <linearGradient id="id21" gradientUnits="userSpaceOnUse" xlink:href="#id1" x1="-2060.02" y1="-3279.98" x2="7337.3" y2="6117.17">
  </linearGradient>
  <linearGradient id="id22" gradientUnits="userSpaceOnUse" xlink:href="#id1" x1="-3862.97" y1="-1605.99" x2="5851" y2="8182.98">
  </linearGradient>
  <linearGradient id="id23" gradientUnits="userSpaceOnUse" xlink:href="#id1" x1="-5124.68" y1="-1050.13" x2="5249.73" y2="9356.27">
  </linearGradient>
  <linearGradient id="id24" gradientUnits="userSpaceOnUse" xlink:href="#id1" x1="-3108.07" y1="-2066.08" x2="6347.25" y2="7390.51">
  </linearGradient>
  <linearGradient id="id25" gradientUnits="userSpaceOnUse" xlink:href="#id1" x1="-803.283" y1="-4775.24" x2="8672.48" y2="4680.51">
  </linearGradient>
  <linearGradient id="id26" gradientUnits="userSpaceOnUse" xlink:href="#id1" x1="-2703.02" y1="-2435.23" x2="6607.85" y2="6895.85">
  </linearGradient>
  <linearGradient id="id27" gradientUnits="userSpaceOnUse" xlink:href="#id1" x1="-2341.25" y1="-3626.45" x2="7507.59" y2="6222.52">
  </linearGradient>
  <linearGradient id="id28" gradientUnits="userSpaceOnUse" xlink:href="#id1" x1="-1614.63" y1="-3891.41" x2="7882.43" y2="5605.65">
  </linearGradient>
  <linearGradient id="id29" gradientUnits="userSpaceOnUse" xlink:href="#id1" x1="-1128.81" y1="-4442.88" x2="8368.42" y2="5054.17">
  </linearGradient>
  <linearGradient id="id30" gradientUnits="userSpaceOnUse" xlink:href="#id1" x1="3076.42" y1="-259.709" x2="3513.93" y2="554.65">
  </linearGradient>
  <linearGradient id="id31" gradientUnits="userSpaceOnUse" xlink:href="#id1" x1="-2904.51" y1="-2462.86" x2="6631.7" y2="7053.45">
  </linearGradient>
  <linearGradient id="id32" gradientUnits="userSpaceOnUse" xlink:href="#id1" x1="-3462.04" y1="-1871.02" x2="6143.18" y2="7734.25">
  </linearGradient>
  <linearGradient id="id33" gradientUnits="userSpaceOnUse" xlink:href="#id1" x1="-3514.76" y1="-1821.72" x2="6044.31" y2="7757.56">
  </linearGradient>
  <linearGradient id="id34" gradientUnits="userSpaceOnUse" xlink:href="#id1" x1="-2996.65" y1="-2507.88" x2="6624.17" y2="7085.48">
  </linearGradient>
  <linearGradient id="id35" gradientUnits="userSpaceOnUse" xlink:href="#id1" x1="-4904.61" y1="37.4606" x2="4531.16" y2="9493.91">
  </linearGradient>
  <linearGradient id="id36" gradientUnits="userSpaceOnUse" xlink:href="#id1" x1="-1741.78" y1="-4113.44" x2="8038.55" y2="5646.6">
  </linearGradient>
  <linearGradient id="id37" gradientUnits="userSpaceOnUse" xlink:href="#id1" x1="-2196.5" y1="-3160.82" x2="7260.36" y2="6316.63">
  </linearGradient>
  <linearGradient id="id38" gradientUnits="userSpaceOnUse" xlink:href="#id1" x1="98.937" y1="2144.68" x2="99.7323" y2="2145.45">
  </linearGradient>
  <linearGradient id="id39" gradientUnits="userSpaceOnUse" xlink:href="#id1" x1="-4402.61" y1="-561.358" x2="5033.17" y2="8895.24">
  </linearGradient>
  <linearGradient id="id40" gradientUnits="userSpaceOnUse" xlink:href="#id1" x1="-3326.96" y1="-3487.94" x2="3414.62" y2="3221.51">
  </linearGradient>
  <linearGradient id="id41" gradientUnits="userSpaceOnUse" xlink:href="#id1" x1="-1381.89" y1="-4607.23" x2="8419.99" y2="5194.71">
  </linearGradient>
  <linearGradient id="id42" gradientUnits="userSpaceOnUse" xlink:href="#id1" x1="-2153.39" y1="-3276.7" x2="7342.14" y2="6239.14">
  </linearGradient>
  <linearGradient id="id43" gradientUnits="userSpaceOnUse" xlink:href="#id1" x1="-884.524" y1="-4601.46" x2="8512.63" y2="4795.85">
  </linearGradient>
  <linearGradient id="id44" gradientUnits="userSpaceOnUse" xlink:href="#id1" x1="-3416" y1="-1735.74" x2="6040.08" y2="7720.26">
  </linearGradient>
  <linearGradient id="id45" gradientUnits="userSpaceOnUse" xlink:href="#id1" x1="-3809.83" y1="-1695.27" x2="6019.58" y2="8154.25">
  </linearGradient>
  <linearGradient id="id46" gradientUnits="userSpaceOnUse" xlink:href="#id1" x1="4423.54" y1="4553.3" x2="4423.57" y2="4553.34">
  </linearGradient>
  <linearGradient id="id47" gradientUnits="userSpaceOnUse" xlink:href="#id1" x1="-2566.08" y1="-2544.44" x2="6785.74" y2="6786.77">
  </linearGradient>
  <linearGradient id="id48" gradientUnits="userSpaceOnUse" xlink:href="#id1" x1="-4536.78" y1="-433.89" x2="4939.23" y2="9042.58">
  </linearGradient>
  <linearGradient id="id49" gradientUnits="userSpaceOnUse" xlink:href="#id1" x1="-2965.18" y1="-2986.65" x2="6960.93" y2="6868.99">
  </linearGradient>
  <linearGradient id="id50" gradientUnits="userSpaceOnUse" xlink:href="#id1" x1="-1922.41" y1="-3483.41" x2="7533.44" y2="5992.53">
  </linearGradient>
  <linearGradient id="id51" gradientUnits="userSpaceOnUse" xlink:href="#id1" x1="-3002.55" y1="-1576.39" x2="5982.91" y2="7388.81">
  </linearGradient>
  <linearGradient id="id52" gradientUnits="userSpaceOnUse" xlink:href="#id1" x1="-2220" y1="-3134.6" x2="7235.69" y2="6342.52">
  </linearGradient>
  <linearGradient id="id53" gradientUnits="userSpaceOnUse" xlink:href="#id1" x1="-3791.16" y1="-1272.59" x2="5664.33" y2="8182.97">
  </linearGradient>
  <linearGradient id="id54" gradientUnits="userSpaceOnUse" xlink:href="#id1" x1="-2676.92" y1="-2646.69" x2="6863.89" y2="6894.04">
  </linearGradient>
  <linearGradient id="id55" gradientUnits="userSpaceOnUse" xlink:href="#id1" x1="-3415.35" y1="-1334.95" x2="5629.02" y2="7729.7">
  </linearGradient>
  <linearGradient id="id56" gradientUnits="userSpaceOnUse" xlink:href="#id1" x1="-3939.56" y1="-1466.87" x2="5721.51" y2="8235.03">
  </linearGradient>
  <linearGradient id="id57" gradientUnits="userSpaceOnUse" xlink:href="#id1" x1="-1935.67" y1="-3470.15" x2="7521.33" y2="6006.42">
  </linearGradient>
  <linearGradient id="id58" gradientUnits="userSpaceOnUse" xlink:href="#id1" x1="-4363.28" y1="-2340.06" x2="101.74" y2="1849.33">
  </linearGradient>
  <linearGradient id="id59" gradientUnits="userSpaceOnUse" xlink:href="#id1" x1="-1900.71" y1="-3731.35" x2="7685.03" y2="5874.68">
  </linearGradient>
  <linearGradient id="id60" gradientUnits="userSpaceOnUse" xlink:href="#id1" x1="-1653.4" y1="-4014.84" x2="7945.04" y2="5583.45">
  </linearGradient>
  <linearGradient id="id61" gradientUnits="userSpaceOnUse" xlink:href="#id1" x1="-2161.83" y1="-3175.11" x2="7292.93" y2="6259.28">
  </linearGradient>
  <linearGradient id="id62" gradientUnits="userSpaceOnUse" xlink:href="#id1" x1="-1176.38" y1="-4323.57" x2="8258.94" y2="5133.5">
  </linearGradient>
  <linearGradient id="id63" gradientUnits="userSpaceOnUse" xlink:href="#id1" x1="-3084.21" y1="-2117.24" x2="6371.91" y2="7359.58">
  </linearGradient>
  <linearGradient id="id64" gradientUnits="userSpaceOnUse" xlink:href="#id1" x1="-3656.02" y1="-1828.25" x2="6026.81" y2="7874.52">
  </linearGradient>
  <linearGradient id="id65" gradientUnits="userSpaceOnUse" xlink:href="#id1" x1="-2438.94" y1="-2874.25" x2="7017.58" y2="6581.25">
  </linearGradient>
  <linearGradient id="id66" gradientUnits="userSpaceOnUse" xlink:href="#id1" x1="-2773.98" y1="-2454.41" x2="6681.85" y2="7001.22">
  </linearGradient>
  <linearGradient id="id67" gradientUnits="userSpaceOnUse" xlink:href="#id1" x1="110.217" y1="1040.91" x2="2477.7" y2="3421.94">
  </linearGradient>
  <linearGradient id="id68" gradientUnits="userSpaceOnUse" xlink:href="#id1" x1="-106.992" y1="1950.98" x2="279.976" y2="2313.14">
  </linearGradient>
  <linearGradient id="id69" gradientUnits="userSpaceOnUse" xlink:href="#id1" x1="593.339" y1="5926.71" x2="675.933" y2="6039.99">
  </linearGradient>
  <linearGradient id="id70" gradientUnits="userSpaceOnUse" xlink:href="#id1" x1="4252.1" y1="4102.72" x2="4530.98" y2="4935.45">
  </linearGradient>
  <linearGradient id="id71" gradientUnits="userSpaceOnUse" xlink:href="#id1" x1="5566.58" y1="4000.43" x2="5567.32" y2="4001.17">
  </linearGradient>
  <linearGradient id="id72" gradientUnits="userSpaceOnUse" xlink:href="#id1" x1="-2122.53" y1="-3474.62" x2="7503.15" y2="6171.36">
  </linearGradient>
  <linearGradient id="id73" gradientUnits="userSpaceOnUse" xlink:href="#id1" x1="-3991.57" y1="-1032.8" x2="5444.39" y2="8424.28">
  </linearGradient>
  <linearGradient id="id74" gradientUnits="userSpaceOnUse" xlink:href="#id1" x1="-896.74" y1="-4404.26" x2="8351.92" y2="4844.24">
  </linearGradient>
  <linearGradient id="id75" gradientUnits="userSpaceOnUse" xlink:href="#id1" x1="-1818.06" y1="-3277.87" x2="7413.54" y2="5953.67">
  </linearGradient>
  <linearGradient id="id76" gradientUnits="userSpaceOnUse" xlink:href="#id1" x1="-3233.72" y1="-2159" x2="6383.95" y2="7458.86">
  </linearGradient>
  <linearGradient id="id77" gradientUnits="userSpaceOnUse" xlink:href="#id1" x1="-2948.68" y1="-1987.11" x2="6272.84" y2="7340.39">
  </linearGradient>
  <linearGradient id="id78" gradientUnits="userSpaceOnUse" xlink:href="#id1" x1="-3662.45" y1="-1411.69" x2="5794.04" y2="8044.78">
  </linearGradient>
  <linearGradient id="id79" gradientUnits="userSpaceOnUse" xlink:href="#id1" x1="-2310.43" y1="-2453.7" x2="6838.43" y2="6695.19">
  </linearGradient>
  <linearGradient id="id80" gradientUnits="userSpaceOnUse" xlink:href="#id1" x1="-2999.87" y1="-2239.66" x2="6477.62" y2="7217.78">
  </linearGradient>
  <linearGradient id="id81" gradientUnits="userSpaceOnUse" xlink:href="#id1" x1="98.4724" y1="2145.37" x2="98.5118" y2="2145.4">
  </linearGradient>
  <linearGradient id="id82" gradientUnits="userSpaceOnUse" xlink:href="#id1" x1="-1535.19" y1="-3929.59" x2="7940.83" y2="5525.89">
  </linearGradient>
  <linearGradient id="id83" gradientUnits="userSpaceOnUse" xlink:href="#id1" x1="-3735.19" y1="-1432.44" x2="5763.23" y2="8086.49">
  </linearGradient>
  <linearGradient id="id84" gradientUnits="userSpaceOnUse" xlink:href="#id1" x1="-3128.52" y1="-2074.11" x2="6327.62" y2="7381.52">
  </linearGradient>
  <linearGradient id="id85" gradientUnits="objectBoundingBox" xlink:href="#id1" x1="15%" y1="14.2857%" x2="85%" y2="80.9524%">
  </linearGradient>
  <linearGradient id="id86" gradientUnits="userSpaceOnUse" xlink:href="#id1" x1="-3342.52" y1="-1813.99" x2="6113" y2="7641.43">
  </linearGradient>
  <linearGradient id="id87" gradientUnits="userSpaceOnUse" xlink:href="#id1" x1="-2552.81" y1="-3218.57" x2="7232.85" y2="6546.77">
  </linearGradient>
  <linearGradient id="id88" gradientUnits="userSpaceOnUse" xlink:href="#id1" x1="-4529.17" y1="-90.5" x2="4641.78" y2="9100.28">
  </linearGradient>
  <linearGradient id="id89" gradientUnits="userSpaceOnUse" xlink:href="#id1" x1="-4619.69" y1="-526.969" x2="4979.13" y2="9091.69">
  </linearGradient>
  <linearGradient id="id90" gradientUnits="userSpaceOnUse" xlink:href="#id1" x1="-672.043" y1="2234.69" x2="1784.27" y2="4682.02">
  </linearGradient>
  <linearGradient id="id91" gradientUnits="userSpaceOnUse" xlink:href="#id1" x1="4423.2" y1="4554.46" x2="4423.86" y2="4555.14">
  </linearGradient>
  <linearGradient id="id92" gradientUnits="userSpaceOnUse" xlink:href="#id1" x1="-2918.8" y1="-2460.75" x2="6664.12" y2="7121.97">
  </linearGradient>
  <linearGradient id="id93" gradientUnits="userSpaceOnUse" xlink:href="#id1" x1="-1895.35" y1="-3323.62" x2="7373.53" y2="5945.24">
  </linearGradient>
  <linearGradient id="id94" gradientUnits="userSpaceOnUse" xlink:href="#id1" x1="2166.46" y1="4553.81" x2="2167.31" y2="4554.67">
  </linearGradient>
  <linearGradient id="id95" gradientUnits="userSpaceOnUse" xlink:href="#id1" x1="-3592.9" y1="-2139.66" x2="6291.07" y2="7744.56">
  </linearGradient>
  <linearGradient id="id96" gradientUnits="userSpaceOnUse" xlink:href="#id1" x1="-3361.04" y1="-2162.13" x2="6565.28" y2="7764.13">
  </linearGradient>
  <linearGradient id="id97" gradientUnits="userSpaceOnUse" xlink:href="#id1" x1="-1484.06" y1="-3963.71" x2="7952.13" y2="5492.99">
  </linearGradient>
  <linearGradient id="id98" gradientUnits="userSpaceOnUse" xlink:href="#id1" x1="-2658.56" y1="-2608.46" x2="6797.24" y2="6847.54">
  </linearGradient>
  <linearGradient id="id99" gradientUnits="userSpaceOnUse" xlink:href="#id1" x1="-3017.36" y1="-2047.07" x2="6297.43" y2="7267.6">
  </linearGradient>
  <linearGradient id="id100" gradientUnits="userSpaceOnUse" xlink:href="#id1" x1="-2941.94" y1="-2338.54" x2="6575.64" y2="7179.58">
  </linearGradient>
  <linearGradient id="id101" gradientUnits="userSpaceOnUse" xlink:href="#id1" x1="-2740.63" y1="-2403.12" x2="6631" y2="6968.72">
  </linearGradient>
  <linearGradient id="id102" gradientUnits="userSpaceOnUse" xlink:href="#id1" x1="-4593.91" y1="-11.1339" x2="4596.17" y2="9199.42">
  </linearGradient>
  <linearGradient id="id103" gradientUnits="userSpaceOnUse" xlink:href="#id1" x1="-4394.78" y1="-585.441" x2="5056.51" y2="8886.15">
  </linearGradient>
  <linearGradient id="id104" gradientUnits="userSpaceOnUse" xlink:href="#id1" x1="-1466.21" y1="-4004.34" x2="7990.82" y2="5472.9">
  </linearGradient>
  <linearGradient id="id105" gradientUnits="userSpaceOnUse" xlink:href="#id1" x1="-2863.66" y1="-2345.65" x2="6551.7" y2="7068.35">
  </linearGradient>
  <linearGradient id="id106" gradientUnits="userSpaceOnUse" xlink:href="#id1" x1="-2738.2" y1="-2523.43" x2="6718.14" y2="6932.88">
  </linearGradient>
  <linearGradient id="id107" gradientUnits="userSpaceOnUse" xlink:href="#id1" x1="5279.86" y1="4453.78" x2="5922.09" y2="4954.57">
  </linearGradient>
  <linearGradient id="id108" gradientUnits="userSpaceOnUse" xlink:href="#id1" x1="546.528" y1="-291.906" x2="551.236" y2="-265.417">
  </linearGradient>
  <linearGradient id="id109" gradientUnits="userSpaceOnUse" xlink:href="#id1" x1="5906.31" y1="5931.33" x2="5990.5" y2="6035.66">
  </linearGradient>
  <linearGradient id="id110" gradientUnits="userSpaceOnUse" xlink:href="#id1" x1="5953.11" y1="3463.32" x2="6023.43" y2="3494.6">
  </linearGradient>
  <linearGradient id="id111" gradientUnits="userSpaceOnUse" xlink:href="#id1" x1="3222.63" y1="5826.59" x2="3367.75" y2="5996.87">
  </linearGradient>
  <linearGradient id="id112" gradientUnits="userSpaceOnUse" xlink:href="#id1" x1="-3863.5" y1="-1173.69" x2="5571.81" y2="8260.98">
  </linearGradient>
  <linearGradient id="id113" gradientUnits="userSpaceOnUse" xlink:href="#id1" x1="-2887.67" y1="-2332.38" x2="6567.71" y2="7123.7">
  </linearGradient>
  <linearGradient id="id114" gradientUnits="userSpaceOnUse" xlink:href="#id1" x1="5916.46" y1="4697.33" x2="6016.43" y2="4776.15">
  </linearGradient>
  <linearGradient id="id115" gradientUnits="userSpaceOnUse" xlink:href="#id1" x1="-1072.91" y1="-4459.19" x2="8382.37" y2="4995.57">
  </linearGradient>
  <linearGradient id="id116" gradientUnits="userSpaceOnUse" xlink:href="#id1" x1="5316.39" y1="-253.571" x2="5438.68" y2="-122.61">
  </linearGradient>
  <linearGradient id="id117" gradientUnits="userSpaceOnUse" xlink:href="#id1" x1="1952.1" y1="-299.815" x2="1976.31" y2="-200.921">
  </linearGradient>
  <linearGradient id="id118" gradientUnits="userSpaceOnUse" xlink:href="#id1" x1="111.882" y1="1057.44" x2="422.059" y2="1283.7">
  </linearGradient>
  <linearGradient id="id119" gradientUnits="userSpaceOnUse" xlink:href="#id1" x1="1415.35" y1="5943.66" x2="1451.67" y2="6046.2">
  </linearGradient>
  <linearGradient id="id120" gradientUnits="userSpaceOnUse" xlink:href="#id1" x1="4967.69" y1="5960.17" x2="4991.17" y2="6045.49">
  </linearGradient>
  <linearGradient id="id121" gradientUnits="userSpaceOnUse" xlink:href="#id1" x1="62.7008" y1="1967.06" x2="293.327" y2="2128.8">
  </linearGradient>
  <linearGradient id="id122" gradientUnits="userSpaceOnUse" xlink:href="#id1" x1="4614.12" y1="-299.815" x2="4638.35" y2="-200.894">
  </linearGradient>
  <linearGradient id="id123" gradientUnits="userSpaceOnUse" xlink:href="#id1" x1="4698.94" y1="5859.69" x2="4792.02" y2="6062.98">
  </linearGradient>
  <linearGradient id="id124" gradientUnits="userSpaceOnUse" xlink:href="#id1" x1="1150.92" y1="-254.252" x2="1273.2" y2="-121.941">
  </linearGradient>
  <linearGradient id="id125" gradientUnits="userSpaceOnUse" xlink:href="#id1" x1="5964.07" y1="2001.51" x2="6024.26" y2="2024">
  </linearGradient>
  <linearGradient id="id126" gradientUnits="userSpaceOnUse" xlink:href="#id1" x1="5386.32" y1="5806.52" x2="5513.96" y2="6080.11">
  </linearGradient>
  <linearGradient id="id127" gradientUnits="userSpaceOnUse" xlink:href="#id1" x1="4956.87" y1="1031.3" x2="5759.67" y2="1878.41">
  </linearGradient>
  <linearGradient id="id128" gradientUnits="userSpaceOnUse" xlink:href="#id1" x1="5314.44" y1="2783.63" x2="5832.48" y2="3288.76">
  </linearGradient>
  <linearGradient id="id129" gradientUnits="userSpaceOnUse" xlink:href="#id1" x1="131.142" y1="713.374" x2="362.661" y2="950.283">
  </linearGradient>
  <linearGradient id="id130" gradientUnits="userSpaceOnUse" xlink:href="#id1" x1="1599.37" y1="5960.2" x2="1622.7" y2="6045.47">
  </linearGradient>
  <linearGradient id="id131" gradientUnits="userSpaceOnUse" xlink:href="#id1" x1="6001.85" y1="-289.736" x2="6011.62" y2="-272.988">
  </linearGradient>
  <linearGradient id="id132" gradientUnits="userSpaceOnUse" xlink:href="#id1" x1="5138.69" y1="5943.66" x2="5175.09" y2="6046.21">
  </linearGradient>
  <linearGradient id="id133" gradientUnits="userSpaceOnUse" xlink:href="#id1" x1="1798.45" y1="5859.75" x2="1891.29" y2="6062.94">
  </linearGradient>
  <linearGradient id="id134" gradientUnits="userSpaceOnUse" xlink:href="#id1" x1="1076.46" y1="5806.52" x2="1204.06" y2="6080.13">
  </linearGradient>
  <linearGradient id="id135" gradientUnits="userSpaceOnUse" xlink:href="#id1" x1="118.217" y1="2448.67" x2="186.594" y2="2563.17">
  </linearGradient>
  <linearGradient id="id136" gradientUnits="userSpaceOnUse" xlink:href="#id1" x1="5996.43" y1="5520.64" x2="6020.26" y2="5525.12">
  </linearGradient>
  <linearGradient id="id137" gradientUnits="userSpaceOnUse" xlink:href="#id1" x1="5915.07" y1="791.697" x2="6012.46" y2="871.858">
  </linearGradient>
  <linearGradient id="id138" gradientUnits="userSpaceOnUse" xlink:href="#id1" x1="4961.47" y1="-205.839" x2="5755.09" y2="641.091">
  </linearGradient>
  <linearGradient id="id139" gradientUnits="userSpaceOnUse" xlink:href="#id1" x1="4525.37" y1="4467.83" x2="5790.62" y2="6004.24">
  </linearGradient>
  <linearGradient id="id140" gradientUnits="userSpaceOnUse" xlink:href="#id1" x1="5316.83" y1="2191.64" x2="5830.94" y2="2691.39">
  </linearGradient>
  <linearGradient id="id141" gradientUnits="userSpaceOnUse" xlink:href="#id1" x1="96.0354" y1="2723.02" x2="207.409" y2="2861.7">
  </linearGradient>
  <linearGradient id="id142" gradientUnits="userSpaceOnUse" xlink:href="#id1" x1="4192.85" y1="-221.571" x2="4431.94" y2="26.5118">
  </linearGradient>
  <linearGradient id="id143" gradientUnits="userSpaceOnUse" xlink:href="#id1" x1="1393.57" y1="-289.047" x2="1427.53" y2="-204.059">
  </linearGradient>
  <linearGradient id="id144" gradientUnits="userSpaceOnUse" xlink:href="#id1" x1="2158.31" y1="-221.421" x2="2397.63" y2="26.3386">
  </linearGradient>
  <linearGradient id="id145" gradientUnits="userSpaceOnUse" xlink:href="#id1" x1="38.1417" y1="3325.93" x2="384.547" y2="3545.8">
  </linearGradient>
  <linearGradient id="id146" gradientUnits="userSpaceOnUse" xlink:href="#id1" x1="5162.76" y1="-289.106" x2="5196.87" y2="-204.031">
  </linearGradient>
  <linearGradient id="id147" gradientUnits="userSpaceOnUse" xlink:href="#id1" x1="103.154" y1="4363.59" x2="329.016" y2="4552.61">
  </linearGradient>
  <linearGradient id="id148" gradientUnits="userSpaceOnUse" xlink:href="#id1" x1="148.681" y1="-281.728" x2="207.323" y2="-146.661">
  </linearGradient>
  <linearGradient id="id149" gradientUnits="userSpaceOnUse" xlink:href="#id1" x1="111.193" y1="378.374" x2="422.772" y2="604.098">
  </linearGradient>
  <linearGradient id="id150" gradientUnits="userSpaceOnUse" xlink:href="#id1" x1="639.232" y1="4375.06" x2="1745.62" y2="6097.12">
  </linearGradient>
 </defs>
 <g id="Camada_x0020_1">
  <metadata id="CorelCorpID_0Corel-Layer"/>
  <g>
   <path class="fil0" d="M2459 995c197,-75 412,-105 616,-105 152,0 328,26 527,78 201,52 388,121 561,206l-64 814 -79 -66c-22,-60 -47,-125 -75,-193 -29,-70 -53,-132 -76,-188 -47,-119 -123,-222 -228,-310 -104,-88 -221,-146 -353,-176l-5 5c-92,-22 -173,-33 -243,-33 -182,0 -339,34 -470,104l-111 -136zm488 1984c-4,-1 -9,-3 -13,-4 1,-2 3,-4 5,-6l8 10zm1098 1337c-121,91 -262,155 -408,199 -163,48 -344,72 -543,72 -226,0 -463,-24 -710,-72 -248,-49 -463,-113 -646,-195l67 -815 78 67c13,26 27,56 39,87 13,31 24,61 33,86 78,191 205,348 381,473 176,125 375,198 596,221 57,7 113,5 170,5 260,0 470,-61 628,-181 60,-46 108,-97 146,-153l169 206zm1916 -4265c0,11 -11,33 -37,66 -13,22 -23,42 -29,58l-84 0c-152,6 -275,56 -370,149 -96,94 -143,219 -143,375l0 3998 0 729 -341 0 -360 -438 -3489 -4249 0 3883c0,157 47,283 142,381 95,97 220,145 372,145l86 0 66 125 -666 0 -141 0 -131 0 -663 0c20,-50 33,-80 42,-92 10,-11 18,-22 25,-33l85 0c151,0 275,-48 369,-145 95,-98 142,-224 142,-381l0 -3920c0,-158 -47,-282 -142,-378 -94,-93 -218,-143 -369,-149l-85 0c-13,-16 -26,-36 -39,-58 -18,-22 -28,-44 -28,-66 215,11 438,11 673,0l131 0 141 0 569 0 3350 4096 0 -3445c0,-158 -47,-282 -143,-378 -95,-93 -220,-143 -372,-149l-85 0c-13,-16 -26,-36 -37,-58 -20,-22 -30,-44 -30,-66 215,11 442,11 676,0l131 0 141 0c234,11 454,11 663,0l-20 0z"/>
  </g>
  <g style="clip-path:url(#id0)">
   <g>
    <g id="_2009937824464">
     <path id="1" class="fil1" d="M1541 5762c3,-8 6,-15 8,-23 -2,5 -5,10 -6,16 -1,2 -2,4 -2,7z"/>
     <path class="fil2" d="M1327 2266l0 0 0 0c0,1 0,1 0,2 0,-1 0,-1 0,-1 0,-1 0,-1 0,-1z"/>
     <path class="fil3" d="M4528 3123c0,0 0,0 1,0 -1,0 -1,0 -1,0 -1,0 -1,0 -1,0l0 0 1 0z"/>
     <path class="fil4" d="M573 3476l0 0 0 0c0,0 0,1 0,1 0,0 0,-1 0,-1 0,0 0,0 0,0z"/>
     <path class="fil5" d="M5041 5738c0,0 0,1 0,1 2,8 5,15 8,21 0,-2 -1,-4 -1,-5 -2,-6 -4,-11 -7,-17z"/>
     <path class="fil6" d="M5566 4000l0 1 1 0c0,0 0,0 1,0 -1,0 -1,0 -1,0 -1,-1 -1,-1 -1,-1z"/>
     <path class="fil7" d="M2222 92c31,8 67,-11 65,-58 -8,-130 56,-254 149,-323l-278 0c-53,118 -58,255 30,362 10,13 22,18 34,19z"/>
     <path class="fil8" d="M4154 -289c93,69 157,193 150,323 -3,47 33,66 64,58 12,-1 24,-6 35,-19 87,-107 83,-244 30,-362l-279 0z"/>
     <path class="fil9" d="M4368 1572c-31,-8 -67,10 -64,58 11,202 -150,389 -323,376 -41,-3 -57,39 -50,75 0,14 5,28 16,40 251,277 694,-239 456,-530 -11,-13 -23,-19 -35,-19z"/>
     <path class="fil10" d="M2643 2121c11,-12 16,-26 16,-40 8,-36 -9,-78 -49,-75 -174,13 -335,-174 -323,-376 2,-47 -34,-66 -65,-58 -12,0 -24,6 -34,19 -238,291 205,807 455,530z"/>
     <path class="fil11" d="M4381 2096c-51,43 -60,134 -17,189 49,62 129,54 177,-2 49,-57 56,-150 3,-207 -48,-51 -126,-40 -163,20z"/>
     <path class="fil12" d="M2209 2096c-37,-60 -115,-71 -162,-20 -54,57 -47,150 2,207 49,56 128,64 177,2 44,-55 35,-146 -17,-189z"/>
     <path class="fil13" d="M3226 3957c0,26 10,49 26,64 1,0 1,0 1,1 2,1 4,3 6,4 1,0 1,1 1,1 10,7 22,11 35,10 13,1 25,-3 35,-10 0,0 1,-1 1,-1 2,-1 4,-3 6,-5l1 0c16,-15 27,-38 26,-64 0,-45 -30,-80 -69,-80 -39,0 -69,35 -69,80z"/>
     <path class="fil14" d="M6017 763c-11,-7 -24,-12 -37,-12 -39,0 -69,35 -69,81 0,45 30,80 69,80 13,0 26,-4 37,-12l0 -137z"/>
     <path class="fil15" d="M551 873c1,3 3,6 5,8l0 0c12,19 32,31 55,31 39,0 69,-35 69,-80 -1,-46 -30,-81 -69,-81 -23,0 -42,12 -55,31 0,0 0,1 -1,1 -1,2 -3,4 -4,7 0,0 0,1 0,1 -6,12 -10,26 -9,41 -1,15 3,29 9,40 0,1 0,1 0,1z"/>
     <path class="fil16" d="M5012 2830c50,-58 49,-158 -3,-213 -49,-53 -124,-38 -164,19 -49,46 -61,133 -17,191 48,62 134,61 184,3z"/>
     <path class="fil17" d="M1762 2827c45,-58 33,-145 -17,-191 -39,-57 -114,-71 -163,-19 -54,55 -53,155 -3,213 49,59 135,58 183,-3z"/>
     <path class="fil18" d="M92 5424c118,-64 254,-78 385,-64 395,40 751,277 1152,155 3,7 6,14 10,21 120,239 309,380 503,514l151 0c-29,-20 -59,-40 -88,-60 -237,-161 -457,-343 -560,-653 -91,-272 -86,-578 18,-844 22,-54 -48,-102 -69,-47 -123,311 -123,673 -2,983 -445,124 -851,-214 -1296,-163 -73,9 -141,29 -204,60l0 98z"/>
     <path class="fil19" d="M92 2858c33,-13 66,-28 99,-46 47,-25 6,-105 -41,-80 -19,10 -38,19 -58,28l0 98z"/>
     <path class="fil20" d="M6017 5276c-339,60 -672,249 -1018,153 120,-308 120,-672 -2,-983 -22,-55 -91,-7 -70,47 96,243 108,521 39,776 -72,266 -228,462 -426,612 -75,57 -158,112 -241,169l153 0c158,-107 312,-220 427,-390 31,-46 58,-95 83,-145 339,103 649,-46 981,-126 24,-5 49,-11 74,-15l0 -98z"/>
     <path class="fil21" d="M1390 1747c136,133 314,155 473,69 62,-33 8,-141 -54,-107 -198,106 -407,-43 -469,-272 -43,-156 -25,-341 -163,-439 -241,-171 -567,59 -617,359 -47,278 152,700 439,586 71,-28 127,-94 147,-173 31,-82 23,-179 -28,-250 -55,-77 -161,-118 -239,-62 -74,53 -82,177 -21,246 55,62 133,55 186,4 -2,48 -31,87 -67,110 -70,43 -159,-5 -212,-62 -77,-83 -114,-211 -106,-331 1,-2 1,-4 1,-7 1,-4 2,-8 2,-13 0,-3 0,-7 1,-10 1,-10 3,-19 5,-28 29,-102 171,-155 245,-159 77,-5 149,26 200,93 73,97 110,225 185,322 0,0 1,1 1,1 25,46 56,88 91,123z"/>
     <path class="fil22" d="M3746 4016c239,54 602,-177 504,-511 -24,-83 -81,-147 -149,-171 -70,-36 -154,-27 -215,32 -66,65 -101,188 -53,279 46,86 153,95 212,24 53,-64 47,-155 3,-217 41,4 75,36 94,79 37,81 -4,185 -53,247 -71,89 -181,132 -284,123 -2,-1 -4,-1 -6,-1 -3,-1 -7,-2 -11,-2 -3,0 -6,-1 -9,-1 -8,-2 -16,-4 -24,-6 -88,-35 -133,-199 -137,-286 -4,-90 23,-173 81,-233 82,-85 192,-128 276,-215 0,0 1,-1 1,-1 39,-30 75,-65 105,-107 115,-157 133,-365 60,-550 -29,-72 -121,-9 -93,63 92,231 -36,474 -233,547 -134,49 -293,29 -377,188 -147,282 51,661 308,719z"/>
     <path class="fil23" d="M5200 -83c-135,-134 -313,-155 -472,-70 -63,34 -9,141 54,108 198,-107 406,42 469,271 42,157 25,342 162,439 226,160 524,-29 604,-299l0 -307c-40,-160 -135,-308 -263,-348l-136 0c-9,3 -17,6 -26,9 -72,29 -127,95 -147,174 -31,81 -24,179 27,250 56,76 161,118 239,62 74,-54 82,-178 21,-247 -55,-62 -133,-55 -186,-4 3,-48 31,-87 68,-109 69,-43 159,5 212,62 76,82 113,211 105,331 0,2 0,4 -1,6 -1,4 -1,9 -1,13 0,4 -1,7 -1,11 -2,9 -3,18 -5,28 -30,102 -171,154 -246,159 -77,4 -148,-27 -200,-94 -73,-96 -109,-224 -184,-321 -1,-1 -1,-1 -1,-2 -26,-45 -56,-87 -92,-122z"/>
     <path class="fil24" d="M552 187c-11,315 251,591 523,524 179,-44 218,-208 247,-394 41,-264 249,-490 487,-362 62,33 116,-74 54,-108 -153,-82 -328,-67 -461,58 -41,38 -75,84 -104,135 0,0 0,0 0,1 -70,90 -109,200 -170,297 -49,76 -115,118 -198,118 -76,-1 -217,-47 -257,-144 -5,-16 -8,-32 -10,-47 -16,-123 16,-256 92,-345 50,-59 128,-108 201,-85 34,11 78,52 88,92 3,11 5,22 5,33 -51,-54 -129,-65 -185,-7 -66,68 -62,197 15,253 75,54 179,17 234,-56 55,-72 65,-173 32,-258 -11,-44 -33,-85 -64,-117 -30,-30 -60,-51 -91,-64l-151 0c-155,61 -281,293 -287,476z"/>
     <path class="fil25" d="M2741 4026c271,12 508,-293 450,-609 -38,-208 -178,-255 -338,-288 -227,-48 -421,-289 -311,-567 29,-72 -64,-136 -93,-63 -70,178 -57,382 50,537 33,47 72,88 116,120 0,1 0,1 1,1 77,81 172,127 255,198 66,57 102,133 101,231 0,88 -40,252 -123,298 -14,6 -27,10 -41,13 -105,18 -220,-20 -296,-108 -51,-58 -93,-149 -73,-234 9,-40 45,-91 79,-103 10,-3 19,-5 28,-5 -46,59 -55,149 -6,215 59,78 170,72 217,-17 47,-88 15,-208 -47,-273 -62,-64 -149,-75 -222,-37 -38,13 -73,38 -101,75 -210,280 119,605 354,616z"/>
     <path class="fil26" d="M6017 1303c-68,-235 -282,-404 -501,-350 -179,44 -219,208 -248,394 -40,264 -248,490 -486,362 -62,-34 -117,74 -54,107 152,83 327,67 461,-58 40,-38 75,-84 103,-134 0,-1 1,-1 1,-1 69,-90 108,-201 169,-297 49,-77 115,-119 199,-118 75,0 216,47 256,143 5,16 9,32 11,48 16,123 -17,255 -92,345 -50,59 -129,108 -202,85 -34,-11 -78,-53 -88,-92 -3,-12 -4,-23 -4,-33 51,53 128,64 185,6 66,-67 61,-197 -16,-252 -75,-54 -178,-17 -234,55 -55,72 -64,174 -32,258 11,44 33,85 65,117 204,208 435,-34 507,-280l0 -305z"/>
     <path class="fil27" d="M576 3557c47,-12 71,-82 41,-127 -28,-44 -91,-41 -115,7 0,1 -1,2 -1,2 -2,4 -4,8 -5,12 -19,57 31,119 80,106zm-3 -81l0 0 0 0c0,0 0,0 0,0 0,0 0,1 0,1 0,0 0,-1 0,-1z"/>
     <path class="fil28" d="M5527 3949c-37,34 -35,106 6,135 1,0 1,0 2,1 3,2 6,4 10,6 49,22 102,-36 91,-94 -10,-55 -71,-82 -109,-48zm39 52l0 -1 0 0 0 0 0 0c0,0 0,0 1,0 0,1 0,1 1,1 -1,0 -1,0 -2,0z"/>
     <polygon class="fil29" points="5566,4001 5566,4001 5566,4000 "/>
     <polygon class="fil29" points="5566,4001 5566,4001 5566,4000 "/>
     <path class="fil30" d="M1064 3949c-39,-34 -99,-7 -110,48 -11,58 42,116 91,94 4,-2 7,-4 10,-6 1,-1 1,-1 2,-1 42,-29 44,-101 7,-135z"/>
     <path class="fil31" d="M6017 3400c-17,3 -33,13 -44,30 -30,45 -6,115 41,127 1,0 2,1 3,1l0 -158z"/>
     <path class="fil32" d="M353 2679l0 0c-4,2 -7,4 -10,7 -36,34 -26,107 13,132 45,30 106,-14 103,-74 -3,-59 -63,-97 -106,-65z"/>
     <path class="fil33" d="M4882 4258c2,3 4,7 6,10 29,42 92,31 114,-14 25,-53 -13,-123 -64,-120 -51,3 -83,73 -56,124l0 0z"/>
     <path class="fil34" d="M1702 4268c3,-3 5,-6 6,-10 0,0 0,0 0,0 28,-51 -5,-121 -55,-124 -52,-3 -90,67 -64,120 22,45 84,56 113,14z"/>
     <path class="fil35" d="M610 2054c26,-51 -9,-122 -60,-122 -1,0 -2,0 -3,1 -3,-1 -7,-1 -11,0 -47,9 -70,81 -44,125 28,47 93,46 118,-4z"/>
     <path class="fil36" d="M4241 4044c8,54 69,82 107,51 40,-32 40,-108 -3,-137 -44,-30 -105,10 -104,70 0,1 0,2 0,3 0,4 0,9 0,13z"/>
     <path class="fil37" d="M5997 -289c6,6 12,11 20,15l0 -15 -20 0z"/>
     <path class="fil38" d="M536 -270c3,1 7,1 11,1 1,0 2,0 3,0 17,0 32,-7 44,-20l-90 0c9,10 20,17 32,19z"/>
     <path class="fil39" d="M2245 3958c-43,29 -43,105 -3,137 38,31 99,3 107,-51 1,-4 1,-8 1,-12 0,-2 0,-3 0,-4 0,-60 -61,-100 -105,-70z"/>
     <path class="fil40" d="M6017 1938c-37,17 -58,73 -36,116 8,17 21,28 36,34l0 -150z"/>
     <path class="fil41" d="M92 2576c34,-13 67,-31 101,-53 23,-15 24,-42 14,-62 -10,-21 -32,-34 -55,-19 -19,12 -40,23 -60,32l0 102z"/>
     <path class="fil42" d="M4413 5593c228,-194 415,-505 409,-829 1,-106 -21,-214 -74,-321 -13,-26 -36,-28 -54,-16 -17,12 -29,37 -16,64 66,140 76,300 47,451 -88,306 -396,549 -629,688 -204,121 -422,243 -589,420l244 0c212,-164 461,-286 662,-457zm-1329 457c-168,-177 -385,-299 -589,-420 -271,-161 -642,-463 -652,-839 0,-96 21,-197 69,-300 13,-27 2,-52 -16,-64 -17,-12 -41,-10 -53,16 -53,107 -75,215 -75,322 -5,323 182,634 409,828 202,171 451,293 662,457l245 0z"/>
     <path class="fil43" d="M340 4429c-4,-51 -51,-69 -88,-54 11,-43 -1,-99 -47,-103 -52,-4 -85,76 -108,118l-5 10 0 244c48,-24 94,-51 139,-83 36,-27 114,-70 109,-132z"/>
     <path class="fil44" d="M127 4872c67,16 135,26 203,28 40,1 117,13 143,-36 22,-41 -5,-90 -40,-103 -3,-2 -6,-2 -9,-3 35,-31 51,-67 17,-109 -36,-44 -93,-6 -131,13 -68,33 -132,75 -192,124 -26,21 -27,77 9,86z"/>
     <path class="fil45" d="M5115 5947c-16,4 -29,18 -27,44 1,14 3,34 5,59l133 0c-28,-42 -52,-76 -65,-95 -14,-20 -32,-19 -46,-8z"/>
     <path class="fil46" d="M1503 5991c2,-26 -11,-40 -28,-44 -13,-11 -32,-12 -46,8 -13,19 -37,53 -65,95l133 0c3,-25 4,-45 6,-59z"/>
     <path class="fil47" d="M1385 5921c14,-18 13,-39 5,-55 -7,-20 -23,-35 -46,-28 -69,21 -315,99 -459,212l398 0c47,-56 84,-104 102,-129z"/>
     <path class="fil48" d="M5036 6003c-1,-24 -14,-38 -30,-43 -17,-9 -38,-6 -50,18 -8,17 -21,42 -35,72l117 0c-1,-20 -1,-36 -2,-47z"/>
     <path class="fil49" d="M1584 5960c-15,5 -28,19 -30,43 0,11 -1,27 -2,47l118 0c-15,-30 -27,-55 -36,-72 -12,-24 -33,-27 -50,-18z"/>
     <path class="fil50" d="M5200 5866c-8,16 -8,37 5,55 19,25 55,73 102,129l399 0c-145,-113 -391,-191 -459,-212 -23,-7 -40,8 -47,28z"/>
     <path class="fil51" d="M1333 5682c-103,-45 -656,-285 -667,0 -11,280 553,127 667,96 25,-6 32,-32 27,-54 -1,-17 -9,-34 -27,-42z"/>
     <path class="fil52" d="M4912 5945c14,-26 3,-51 -15,-62 -12,-10 -27,-15 -43,-6 -44,23 -167,89 -281,173l281 0c26,-45 46,-82 58,-105z"/>
     <path class="fil53" d="M1737 5877c-17,-9 -32,-4 -43,6 -18,11 -30,36 -16,62 12,23 33,60 58,105l282 0c-114,-84 -238,-151 -281,-173z"/>
     <path class="fil54" d="M5257 5682c-17,8 -26,24 -27,42 -5,22 2,48 27,54 115,31 678,184 667,-96 -11,-286 -565,-45 -667,0z"/>
     <path class="fil55" d="M2815 -289c96,315 255,612 433,852 15,19 32,24 47,19 16,5 33,0 47,-19 178,-240 337,-537 433,-852l-220 0c-64,150 -138,292 -213,433 -22,41 -72,41 -93,0 -75,-141 -150,-283 -213,-433l-221 0z"/>
     <path class="fil56" d="M3526 886c324,326 769,597 1205,616 173,8 359,-109 334,-338 -18,-171 -130,-269 -255,-332 125,-63 237,-161 255,-333 25,-229 -161,-345 -334,-338 -437,19 -881,290 -1205,616 -16,17 -20,37 -16,55 -4,18 0,38 16,54zm360 -108c136,-98 273,-195 418,-275 110,-59 260,-156 384,-132 99,19 157,124 121,235 -17,49 -44,92 -77,131 -13,15 -28,30 -42,44 -9,8 -18,16 -27,24 -10,9 -21,18 -32,27 11,8 22,17 32,26 9,8 18,16 27,24 15,15 30,30 44,46 36,43 66,91 80,148 25,106 -34,198 -126,216 -129,25 -288,-78 -401,-141 -139,-78 -271,-171 -401,-265 -35,-25 -35,-83 0,-108z"/>
     <path class="fil57" d="M3581 2892c197,29 296,-187 290,-388 -16,-509 -249,-1026 -529,-1404 -14,-19 -31,-23 -47,-18 -15,-5 -32,-1 -47,18 -280,378 -512,895 -529,1404 -6,201 94,417 291,388 147,-21 231,-151 285,-297 55,146 138,276 286,297zm-242 -437c-7,-10 -14,-20 -21,-30 -8,-13 -15,-25 -23,-38 -7,13 -15,25 -23,38 -6,10 -13,20 -20,31 -13,17 -26,35 -40,51 -36,42 -78,77 -126,92 -92,30 -171,-39 -186,-146 -22,-150 67,-335 121,-467 67,-161 147,-315 228,-467 21,-40 71,-40 92,0 85,159 168,318 236,487 52,128 134,302 114,447 -17,115 -107,183 -202,141 -42,-19 -79,-51 -112,-90 -13,-15 -26,-32 -38,-49z"/>
     <path class="fil58" d="M3080 832c5,-18 1,-38 -16,-55 -324,-326 -768,-597 -1205,-616 -173,-7 -358,109 -334,338 19,172 130,270 255,333 -125,63 -237,161 -255,332 -24,229 161,346 334,338 437,-19 881,-290 1205,-616 17,-16 21,-36 16,-54zm-375 54c-136,98 -274,195 -419,274 -109,60 -259,156 -383,132 -99,-19 -158,-123 -121,-234 16,-50 44,-93 77,-131 13,-16 27,-30 42,-44 8,-9 17,-17 26,-24 11,-9 21,-18 32,-27 -11,-9 -21,-18 -32,-27 -9,-8 -18,-16 -27,-24 -15,-14 -30,-30 -43,-46 -37,-42 -67,-91 -80,-147 -26,-107 34,-199 126,-217 128,-25 288,79 401,142 138,77 270,171 401,265 34,25 34,83 0,108z"/>
     <path class="fil59" d="M5791 3654c78,-14 101,-115 68,-189 -20,-44 -58,-71 -92,-98 -70,-54 -142,-104 -213,-156 -142,-104 -284,-208 -426,-313 -20,-14 -38,-6 -49,10 -14,13 -21,35 -9,57 90,165 179,331 269,496 45,83 88,167 134,248 23,40 47,84 84,107 63,39 150,12 162,-78 5,-34 -3,-69 -17,-104 30,16 61,25 89,20zm-523 -571c0,4 0,8 -1,12 -1,5 -3,9 -5,13 -3,5 -7,10 -12,13 -1,1 -1,1 -2,2 -3,1 -6,3 -9,4 -5,2 -11,2 -17,1 -2,0 -3,0 -5,0 -5,-1 -10,-4 -14,-6 -7,-4 -13,-9 -18,-15 -11,-14 -15,-30 -17,-48 0,-1 0,-1 0,-1 0,-6 1,-12 3,-17 4,-11 12,-21 22,-26 4,-2 9,-3 14,-3 0,0 1,0 1,0 16,2 30,7 41,20 5,6 10,13 13,20 2,6 4,12 5,18 1,4 1,9 1,13zm131 169c-1,3 -2,5 -3,7 0,1 0,1 0,1 -1,1 -1,2 -1,2 -1,2 -2,3 -3,4 -1,2 -2,4 -3,5 -1,1 -1,1 -2,2 -2,1 -4,3 -6,4l0 0 0 0c-2,2 -4,3 -6,3 -12,6 -25,7 -37,4 -10,-3 -19,-8 -27,-17 -14,-15 -19,-40 -16,-62 2,-11 6,-21 13,-29 7,-9 16,-13 26,-16 19,-4 40,3 53,19 8,9 12,20 15,31 2,14 1,29 -3,42zm336 314c-23,-7 -46,-15 -69,-24 -6,-2 -12,-5 -17,-7 -17,-7 -34,-14 -51,-22 7,19 13,39 19,59 2,6 4,13 6,20 8,26 15,53 21,80 9,39 -29,75 -59,53 -33,-23 -48,-57 -60,-95 -4,-12 -7,-24 -11,-37 -23,-76 -53,-148 -89,-218 -20,-40 21,-88 55,-64 60,42 122,77 187,104 11,5 22,9 33,13 32,14 61,32 80,69 19,36 -12,79 -45,69z"/>
     <path class="fil60" d="M1251 3461c90,-165 179,-331 269,-496 12,-22 5,-44 -8,-57 -11,-16 -30,-24 -49,-10 -142,105 -284,209 -426,313 -71,52 -143,102 -213,156 -34,27 -73,54 -92,98 -34,74 -11,175 67,189 29,5 59,-4 89,-20 -14,35 -21,70 -17,104 12,90 99,117 162,78 38,-23 62,-68 84,-107 47,-81 90,-165 134,-248zm72 -386c0,-2 0,-4 0,-5 1,-6 3,-12 5,-18 4,-7 8,-14 13,-20 12,-13 26,-18 41,-20 1,0 1,0 1,0 5,0 10,1 15,3 9,5 18,15 22,26 2,5 3,11 2,17 0,0 1,0 1,1 -2,18 -6,34 -18,48 -5,6 -11,11 -17,15 -5,2 -10,5 -15,5 -4,1 -8,1 -11,1 -4,0 -7,0 -11,-1 -4,-1 -7,-3 -11,-5 -5,-4 -8,-9 -11,-15 -1,0 -1,-1 -1,-2 -2,-3 -3,-6 -4,-10 -2,-6 -2,-13 -1,-20zm-134 135c2,-11 7,-22 14,-31 14,-17 35,-23 54,-19 9,3 18,7 25,16 7,8 11,18 13,29 4,22 -2,47 -16,62 -8,9 -17,14 -27,17 -12,3 -24,2 -36,-3 -2,-1 -4,-2 -6,-3 0,-1 -1,-1 -1,-1 -1,0 -1,-1 -2,-1 -1,-1 -2,-2 -3,-3 -1,-1 -3,-3 -4,-4 -1,-1 -1,-1 -1,-2 -2,-2 -3,-4 -4,-7l0 0 0 0c-1,-2 -2,-5 -3,-7 -5,-14 -6,-29 -3,-43zm-124 421c-12,37 -27,71 -59,94 -31,22 -68,-14 -59,-53 6,-27 13,-54 20,-80 2,-7 4,-14 6,-20 6,-20 12,-40 19,-59 -17,8 -33,15 -50,22 -6,2 -12,5 -18,7 -22,9 -45,17 -69,24 -33,10 -64,-33 -45,-69 20,-38 49,-55 82,-69 10,-4 20,-9 31,-13 66,-27 128,-62 187,-104 35,-24 76,24 55,64 -36,70 -66,142 -89,218 -4,13 -7,26 -11,38z"/>
     <path class="fil61" d="M1440 2853c20,-13 24,-36 17,-55 -2,-20 -15,-37 -38,-36 -168,8 -335,17 -503,26 -107,5 -291,-28 -382,52 -55,48 -72,147 -10,199 22,18 50,27 82,30 -25,22 -46,46 -57,75 -31,81 26,156 95,166 113,15 257,-123 352,-182 148,-92 296,-183 444,-275zm-226 -2c2,-6 5,-12 9,-17 0,-2 1,-3 2,-4 3,-5 7,-8 11,-12 16,-12 38,-17 55,-8 3,1 6,3 9,5 5,3 9,7 12,11 2,3 4,7 5,11 3,7 4,15 3,24 0,5 -2,11 -4,16 0,0 -1,1 -1,1 -14,22 -34,36 -57,35 -5,-1 -10,-2 -16,-4 -4,-2 -7,-4 -10,-7 -1,-1 -2,-1 -3,-2 0,0 -1,0 -1,-1 -1,-1 -2,-2 -3,-3 -4,-3 -6,-7 -8,-11 -2,-6 -4,-12 -4,-19 0,-1 0,-2 0,-3 0,-4 1,-8 1,-12zm-182 70c0,-3 0,-5 1,-8 2,-15 7,-28 15,-39 8,-9 17,-15 28,-19 18,-6 38,1 52,15 7,8 13,17 16,28 2,11 1,23 -2,33 -6,22 -21,40 -40,45 -10,3 -21,3 -30,-1 -12,-4 -23,-12 -31,-24 -1,-2 -2,-4 -3,-5 0,-1 -1,-1 -1,-1 0,-1 -1,-2 -1,-3 -1,-2 -1,-3 -2,-4 0,-2 -1,-4 -1,-6 0,-1 -1,-2 -1,-3 0,-2 0,-5 0,-8 0,0 0,0 0,0l0 0zm-75 83c-60,40 -116,84 -169,137 -9,9 -18,19 -27,27 -26,26 -53,45 -92,48 -36,2 -51,-52 -28,-80 17,-20 34,-39 52,-58 5,-4 9,-9 13,-14 14,-13 28,-27 42,-40 -18,-3 -36,-6 -53,-10 -6,-1 -12,-2 -18,-4 -23,-5 -47,-12 -71,-19 -32,-10 -41,-67 -9,-85 34,-21 65,-20 99,-14 9,2 18,4 27,6 71,15 142,21 214,19 40,-1 55,65 20,87z"/>
     <path class="fil62" d="M5191 4058c16,-26 24,-59 26,-95 18,29 39,52 64,65 70,37 135,-29 143,-110 13,-132 -106,-299 -156,-409 -79,-173 -158,-345 -237,-518 -11,-23 -30,-27 -46,-19 -18,3 -33,17 -32,44 8,195 15,390 22,586 5,124 -23,338 45,444 41,65 126,84 171,12zm-30 -504c34,69 73,135 118,196 8,11 16,21 23,31 22,32 39,62 41,108 2,42 -45,60 -68,33 -18,-20 -34,-40 -50,-61 -4,-5 -8,-10 -12,-15 -12,-16 -23,-33 -35,-49 -2,21 -5,42 -8,62 -1,7 -2,14 -4,20 -4,28 -10,56 -16,83 -9,38 -57,48 -73,11 -18,-39 -17,-75 -12,-115 1,-11 3,-21 5,-32 13,-82 18,-165 17,-249 -1,-46 55,-64 74,-23zm-62 -216c18,7 34,25 38,47 3,12 2,24 -1,35 -3,14 -10,26 -21,36 -1,1 -3,3 -4,4 0,0 -1,0 -1,1 -1,0 -2,1 -2,1 -1,1 -2,1 -4,2 -1,1 -3,1 -5,2 -1,0 -1,0 -2,0 -2,1 -4,1 -7,1 0,0 0,0 0,0l0 0c-2,0 -5,-1 -7,-1 -13,-2 -24,-9 -33,-18 -8,-9 -14,-20 -17,-32 -5,-21 1,-45 13,-61 7,-9 15,-15 24,-18 10,-3 20,-2 29,1zm-87 -96c-4,-3 -8,-8 -11,-13 -10,-18 -14,-44 -7,-64 1,-4 3,-7 5,-11 2,-5 5,-10 9,-13 3,-3 6,-5 9,-6 6,-3 14,-5 21,-4 5,0 10,2 14,5 0,0 1,1 1,1 19,16 31,40 30,66 -1,6 -2,12 -4,19 -1,4 -3,8 -5,12 -1,1 -2,2 -2,4 0,0 -1,0 -1,0 -1,2 -1,3 -2,4 -3,4 -7,7 -10,9 -5,3 -11,5 -16,5 -1,0 -2,0 -3,0 -3,0 -7,-1 -10,-2 -6,-1 -11,-5 -15,-9 -1,-1 -2,-2 -3,-3z"/>
     <path class="fil63" d="M1571 4046c68,-106 39,-320 44,-444 8,-196 15,-391 22,-586 1,-27 -14,-41 -31,-44 -16,-8 -36,-4 -47,19 -79,173 -158,345 -237,518 -39,86 -80,171 -118,258 -20,47 -42,97 -37,151 8,81 72,147 142,110 25,-12 46,-36 64,-65 3,36 11,69 27,95 44,72 129,53 171,-12zm-34 -909c1,0 1,-1 2,-1 4,-3 9,-5 14,-5 7,-1 14,1 20,4 4,1 6,3 9,6 4,3 7,8 10,13 1,4 3,7 4,11 8,20 4,46 -7,64 -3,5 -6,10 -10,13 -3,3 -6,5 -9,7 -3,2 -6,4 -9,5 -5,2 -9,2 -13,2 -6,0 -11,-2 -16,-6 -1,0 -1,0 -2,-1 -3,-2 -6,-4 -8,-7 -4,-4 -7,-9 -9,-16 -1,-1 -1,-3 -2,-4 -2,-7 -3,-13 -3,-19 -2,-26 11,-50 29,-66zm-84 248c5,-22 20,-40 39,-47 9,-3 19,-4 28,-1 10,3 18,9 24,18 12,16 18,40 13,61 -2,13 -8,23 -16,32 -9,9 -21,16 -33,18 -2,0 -4,1 -7,1 0,0 0,0 0,0 -2,0 -3,0 -4,0 -1,0 -2,0 -3,-1 -2,0 -4,0 -6,-1 0,0 -1,0 -1,-1 -2,-1 -5,-2 -7,-3 0,0 0,0 0,0l0 -1c-2,-1 -3,-2 -5,-4 -10,-10 -17,-22 -21,-36 -3,-11 -3,-23 -1,-35zm-76 461c-4,5 -7,10 -11,15 -16,21 -33,41 -50,61 -24,27 -71,8 -69,-33 2,-45 19,-76 41,-107 7,-10 15,-21 24,-32 45,-61 83,-127 117,-197 19,-40 76,-22 75,24 -2,84 3,167 17,249 1,11 3,21 4,31 6,40 7,77 -11,116 -16,37 -65,27 -74,-11 -6,-27 -11,-55 -16,-83 -1,-6 -2,-13 -3,-20 -4,-21 -6,-41 -9,-62 -11,16 -23,33 -35,49z"/>
     <path class="fil64" d="M6017 2814c-98,-46 -250,-22 -343,-26 -167,-9 -335,-18 -503,-26 -22,-1 -35,16 -38,36 -6,19 -3,42 17,55 148,92 297,184 445,275 74,46 147,94 222,138 40,24 83,50 129,44 27,-4 52,-17 71,-37l0 -171c-10,-12 -20,-22 -32,-32 11,-2 22,-3 32,-6l0 -250zm-644 71c-1,0 -1,1 -1,2 -2,3 -4,6 -6,9 -4,5 -9,8 -14,11 -1,0 -3,1 -4,2 -5,2 -11,3 -16,3 -22,2 -43,-12 -57,-34 0,0 0,-1 0,-1 -3,-5 -4,-11 -5,-17 0,-8 1,-16 3,-23 2,-4 4,-8 6,-11 3,-5 7,-8 11,-11 3,-2 6,-4 9,-5 17,-9 40,-4 55,8 5,3 9,7 12,12 2,3 4,7 6,11 1,3 3,6 4,10 2,5 2,10 2,15 -1,7 -2,13 -5,19zm186 40c-1,1 -1,2 -1,3 0,3 0,5 -1,7 0,1 0,1 0,2 -1,3 -2,5 -4,8 0,0 0,0 0,0l0 0c-1,2 -2,4 -4,6 -8,12 -19,20 -30,24 -10,4 -20,4 -31,1 -19,-5 -34,-23 -40,-44 -3,-11 -4,-23 -1,-34 2,-11 8,-20 15,-28 14,-14 35,-20 53,-15 11,3 20,10 27,20 8,10 14,23 16,38 0,2 1,5 1,7 0,1 0,1 0,1 0,1 0,3 0,4zm425 66c-23,7 -47,14 -71,19 -6,1 -11,3 -17,4 -18,4 -36,7 -54,10 14,13 28,27 42,41 4,4 9,9 13,13 18,19 36,38 53,58 23,28 7,82 -29,80 -38,-3 -65,-22 -91,-47 -9,-9 -18,-18 -28,-28 -52,-52 -109,-97 -169,-137 -34,-22 -19,-88 20,-87 72,2 143,-4 214,-19 9,-2 18,-4 27,-6 34,-6 66,-7 100,14 31,18 22,75 -10,85z"/>
     <path class="fil65" d="M532 2647c92,78 276,42 383,45 167,6 335,11 503,17 23,1 35,-17 38,-37 7,-19 4,-42 -17,-54 -149,-89 -298,-178 -448,-268 -74,-44 -148,-91 -224,-134 -45,-25 -91,-51 -143,-38 -70,18 -112,100 -74,176 12,24 31,44 53,62 -32,3 -60,13 -82,32 -62,52 -44,151 11,199zm684 -57c0,-1 1,-2 1,-3 2,-3 4,-6 6,-9 4,-5 9,-9 14,-11 1,-1 2,-1 4,-2 5,-2 10,-3 15,-4 8,0 16,1 23,3 15,5 25,17 35,31 0,0 0,1 0,1 3,5 4,10 5,16 1,12 -2,25 -8,35 -3,5 -6,9 -11,11 0,0 0,1 -1,1 -21,11 -45,12 -64,-3 -4,-3 -9,-7 -12,-12 -3,-4 -5,-8 -6,-12 -2,-3 -3,-6 -4,-9 -2,-5 -2,-10 -2,-14 0,-7 2,-14 5,-19zm-178 -63c8,-12 19,-21 31,-25 9,-4 20,-5 31,-1 18,5 34,22 40,43 3,11 4,23 1,34 -2,11 -8,20 -15,28 -14,14 -34,21 -52,16 -11,-3 -21,-10 -28,-19 -7,-9 -13,-21 -15,-35 0,0 0,0 0,0 0,-1 0,-1 -1,-2 0,-2 0,-5 -1,-8 0,-1 0,-1 0,-2 0,-11 3,-21 9,-29zm-435 -33c24,-8 47,-14 71,-20 6,-1 12,-3 17,-4 18,-4 36,-8 54,-11 -15,-13 -29,-26 -43,-40 -4,-4 -9,-9 -13,-13 -18,-19 -36,-38 -54,-58 -24,-27 -7,-81 29,-80 42,2 70,26 99,54 7,6 14,13 21,20 53,51 110,95 170,133 36,23 19,88 -20,87 -72,0 -143,7 -214,24 -8,2 -17,4 -25,6 -35,7 -66,8 -101,-12 -32,-19 -22,-75 9,-86z"/>
     <path class="fil66" d="M4603 4027c20,-14 37,-35 53,-61 3,37 11,70 28,96 44,71 129,51 170,-14 67,-107 36,-321 39,-445 5,-195 10,-391 15,-586 0,-26 -15,-41 -32,-44 -16,-8 -36,-4 -46,20 -77,173 -154,347 -230,521 -39,87 -78,173 -115,261 -22,52 -45,107 -33,167 15,82 86,130 151,85zm180 -848c5,-18 15,-29 27,-40 0,0 0,-1 1,-1 4,-3 8,-5 13,-6 11,-1 22,3 30,9 5,4 8,8 10,13 0,1 1,1 1,2 9,24 10,52 -3,74 -3,5 -6,10 -10,14 -3,3 -7,6 -10,8 -3,2 -6,3 -8,4 -5,2 -9,2 -13,2 -5,0 -11,-2 -16,-5 -1,-1 -1,-1 -2,-2 -3,-2 -6,-4 -8,-7 -4,-4 -7,-10 -9,-16 -1,-2 -1,-3 -2,-4 -2,-6 -3,-12 -3,-18 -1,-9 0,-19 2,-27zm-54 209c4,-22 19,-40 37,-47 10,-4 20,-5 29,-2 10,3 18,10 24,18 13,16 18,40 14,61 -3,13 -9,24 -16,32 -9,9 -19,15 -30,18 0,0 -1,0 -1,0 0,0 -1,0 -1,0 -2,1 -5,1 -8,2 0,0 0,0 -1,0 -10,1 -18,-4 -25,-11 -10,-9 -18,-21 -21,-35 -3,-12 -4,-24 -1,-36zm-200 507c2,-48 22,-81 46,-116 6,-7 11,-15 17,-23 44,-62 82,-129 115,-199 19,-41 75,-22 75,24 -1,84 6,166 20,248 2,11 3,20 5,30 6,41 7,77 -10,118 -16,37 -65,25 -74,-12 -7,-27 -12,-54 -17,-81 -1,-7 -3,-14 -4,-21 -3,-20 -6,-41 -9,-62 -11,17 -23,33 -34,50 -4,5 -8,10 -12,15 -16,21 -32,42 -49,62 -24,28 -70,8 -69,-33z"/>
     <path class="fil67" d="M1907 4062c16,-26 24,-59 28,-95 12,21 27,39 43,53 65,55 144,10 161,-78 24,-131 -91,-298 -139,-406 -80,-181 -159,-362 -239,-543 -11,-24 -30,-28 -47,-20 -17,3 -32,18 -31,44 5,195 9,391 14,586 3,125 -28,338 39,445 41,65 126,86 171,14zm-23 -505c33,70 70,137 114,199 9,12 17,23 25,34 21,31 37,62 38,105 2,42 -45,61 -68,34 -18,-21 -34,-42 -50,-63 -4,-5 -7,-10 -11,-15 -12,-17 -23,-33 -34,-50 -3,21 -6,42 -10,62 -1,7 -2,14 -3,21 -6,27 -11,54 -18,81 -9,37 -57,49 -73,12 -18,-41 -16,-77 -11,-117 2,-10 4,-20 5,-30 15,-83 21,-165 21,-249 0,-46 55,-65 75,-24zm-60 -216c18,7 33,25 38,47 2,12 2,24 -1,36 -4,14 -12,26 -22,35 -1,2 -3,3 -4,4 0,0 0,0 -1,0 0,1 0,1 0,1 -2,1 -4,2 -6,3 -1,0 -2,1 -2,1 -2,1 -4,1 -6,1 -1,1 -2,1 -4,1 -1,0 -1,0 -2,0 0,0 0,0 -1,0 -2,0 -4,-1 -7,-2 -12,-2 -23,-9 -32,-18 -8,-9 -13,-19 -16,-32 -5,-21 1,-45 13,-61 7,-8 15,-15 24,-18 10,-3 20,-2 29,2zm-96 -111c-12,-22 -12,-50 -2,-74 0,-1 0,-1 0,-2 2,-5 6,-9 10,-13 9,-6 20,-10 30,-9 5,1 10,3 14,6 0,0 0,0 1,1 12,11 22,22 26,40 2,8 3,18 3,27 -1,6 -2,12 -4,18 -1,4 -3,8 -5,11 -2,4 -3,7 -5,9 -3,4 -7,7 -11,9 -5,3 -10,5 -16,5 -1,0 -1,0 -2,0 -3,0 -7,-1 -10,-2 -5,-1 -10,-5 -15,-9 -1,-1 -2,-2 -3,-3 -5,-4 -8,-9 -11,-14z"/>
     <path class="fil68" d="M6017 2421c-10,-2 -19,-4 -29,-5 10,-9 20,-18 29,-28l0 -182c-14,-13 -31,-23 -51,-28 -112,-28 -255,106 -348,161 -156,93 -311,186 -467,279 -20,12 -23,35 -17,54 3,20 16,38 38,37 168,-6 336,-11 504,-17 92,-3 242,24 341,-20l0 -251zm-639 202c-1,6 -4,12 -8,17 -1,1 -2,3 -2,4 -4,5 -8,9 -12,12 -19,15 -44,14 -65,3 0,0 0,-1 -1,-1 -4,-2 -8,-6 -11,-11 -6,-10 -9,-23 -8,-35 1,-6 3,-11 5,-16 1,0 1,-1 1,-1 9,-14 19,-26 34,-31 8,-2 15,-3 23,-3 6,1 11,2 16,4 3,2 7,4 10,6 3,2 5,4 8,7 3,3 5,7 7,11 3,6 4,13 4,20 0,0 0,1 0,2 0,4 0,8 -1,12zm183 -66c0,2 0,5 -1,8 -2,15 -8,28 -16,38 -7,9 -16,15 -27,19 -18,6 -39,-2 -53,-16 -7,-8 -12,-17 -15,-28 -3,-11 -2,-23 2,-34 6,-21 21,-38 40,-44 10,-3 21,-2 31,2 12,4 22,13 30,25 1,1 2,3 3,5 0,0 1,0 1,0 0,1 0,1 0,1 1,3 2,5 3,7 0,1 0,2 1,3 0,2 1,4 1,6 0,1 0,3 0,5 0,0 0,1 0,2 0,0 0,0 0,1zm436 23c-35,20 -66,19 -101,12 -8,-2 -17,-4 -26,-6 -71,-17 -142,-24 -214,-24 -39,0 -55,-64 -20,-87 61,-38 118,-82 171,-133 10,-10 20,-20 29,-29 27,-24 53,-43 91,-45 35,-1 52,53 28,80 -17,20 -35,39 -53,58 -5,4 -9,9 -14,13 -14,14 -28,27 -42,40 18,3 35,7 53,11 6,1 12,3 18,4 23,6 47,12 70,20 32,11 41,67 10,86z"/>
     <path class="fil69" d="M3334 5068c-5,-25 -22,-35 -39,-33 -17,-2 -34,8 -39,33 -20,109 -78,227 -71,339 4,66 44,148 110,148 61,1 103,-74 110,-137 12,-114 -50,-239 -71,-350zm-28 431c-2,1 -4,1 -6,1l0 0c-2,0 -4,1 -6,0 -1,0 -2,0 -3,0 -1,0 -2,0 -3,0 -1,0 -2,-1 -3,-1 -1,0 -2,-1 -2,-1 0,0 0,0 0,0 -32,-12 -58,-48 -55,-88 2,-32 20,-61 44,-73 8,-4 15,-7 23,-7 8,0 16,2 23,7 10,5 19,12 25,20 12,15 19,34 20,55 1,41 -25,76 -57,87z"/>
     <path class="fil70" d="M3981 5164c-4,-2 -2,-1 0,0l0 0z"/>
     <path class="fil71" d="M3779 4909c1,3 2,5 3,7 31,99 39,220 88,309 33,60 104,111 165,72 64,-39 58,-144 25,-207 -22,-41 -55,-70 -87,-99 -45,-40 -87,-82 -126,-127 -15,-17 -33,-17 -46,-8 -17,7 -28,24 -23,48 1,2 1,3 1,5zm140 216c5,-8 11,-15 18,-21 6,-4 13,-6 20,-8 12,-2 23,-1 33,2 18,5 33,18 42,36 20,34 12,79 -10,108 -6,8 -13,12 -21,13 -31,9 -67,-6 -84,-38 -14,-27 -13,-65 2,-92z"/>
     <path class="fil72" d="M2609 5164c0,0 1,1 1,1 1,-1 1,-1 -1,-1l0 0 0 0z"/>
     <path class="fil73" d="M2556 5297c60,39 132,-12 165,-72 48,-89 57,-210 88,-309 1,-2 1,-4 2,-7 1,-2 1,-3 1,-5 6,-24 -6,-41 -22,-48 -14,-9 -32,-9 -46,8 -40,46 -82,87 -126,127 -33,29 -66,58 -87,100 -33,62 -40,167 25,206zm5 -168c17,-25 45,-38 71,-33 7,2 15,4 21,8 8,5 14,12 18,21 6,11 10,25 11,36 3,20 0,41 -10,58 -18,31 -52,46 -83,36 0,0 -1,0 -1,-1 -1,0 -1,0 -2,0 0,0 0,0 0,0 -7,-2 -13,-6 -18,-12 0,-1 -1,-2 -2,-3 -21,-31 -27,-76 -5,-110z"/>
     <path class="fil74" d="M105 2146c0,0 -4,0 -6,-1l-1 0 0 1c2,0 5,0 7,0z"/>
     <path class="fil75" d="M98 2145c0,0 0,0 0,0 -1,0 -2,0 -1,0 0,0 0,0 1,0z"/>
     <polygon class="fil76" points="98,2145 99,2145 99,2145 "/>
     <polygon class="fil77" points="98,2146 98,2146 98,2145 98,2145 "/>
     <path class="fil78" d="M99 2145l0 0c0,0 1,0 1,0 0,0 -1,0 -1,0z"/>
     <path class="fil79" d="M92 2293c50,2 97,-45 120,-94 43,-96 31,-229 48,-333 11,-24 -2,-47 -20,-56 -20,-12 -45,-9 -54,18 -27,43 -62,83 -94,125l0 124c8,-3 16,-4 23,-4 7,0 14,2 21,5 7,3 13,9 18,15 21,24 26,67 14,98 -13,33 -42,46 -71,46 -2,0 -3,0 -5,0l0 56z"/>
     <path class="fil80" d="M4424 4555c0,0 0,0 0,-1 0,0 0,0 0,0 -1,1 -1,2 0,1z"/>
     <path class="fil81" d="M4424 4553l0 0c-1,-1 -1,-1 -1,-2 0,1 0,2 1,2z"/>
     <polygon class="fil82" points="4424,4554 4424,4554 4424,4553 4424,4553 "/>
     <polygon class="fil83" points="4424,4553 4424,4553 4424,4553 "/>
     <path class="fil84" d="M4424 4553l0 1c0,-3 0,-5 0,-8 0,0 0,4 0,7l0 0z"/>
     <path class="fil85" d="M4543 4599c26,-71 -22,-146 -74,-177 -81,-51 -196,-37 -285,-57 -21,-12 -40,2 -49,24 -10,22 -7,53 16,63 72,61 135,157 217,199 56,30 146,25 175,-52zm-41 -36c0,3 0,5 0,8 -2,10 -7,18 -13,24 -23,28 -60,34 -89,17 -24,-13 -39,-47 -39,-78 1,-8 2,-17 5,-24 3,-8 7,-15 12,-21 22,-25 58,-31 85,-16 28,15 40,48 40,82 0,3 -1,5 -1,8z"/>
     <path class="fil86" d="M92 -289c32,42 67,82 94,124 9,27 35,31 54,18 18,-9 31,-31 20,-55 -4,-28 -7,-57 -9,-87l-159 0z"/>
     <path class="fil87" d="M2167 4555c0,0 0,-1 0,-2l0 0c0,1 0,2 0,2z"/>
     <path class="fil88" d="M2167 4553c0,-3 -1,-6 -1,-7 1,2 1,5 1,7l0 0 0 0z"/>
     <polygon class="fil89" points="2167,4553 2167,4553 2167,4553 "/>
     <path class="fil90" d="M2455 4389c-8,-22 -27,-36 -48,-24 -88,20 -196,7 -278,52 -55,30 -109,107 -81,182 28,75 114,81 170,54 84,-39 149,-139 221,-201 23,-10 26,-41 16,-63zm-264 223c-29,18 -67,10 -89,-17 -7,-6 -12,-14 -13,-24 0,-2 -1,-5 -1,-7 0,-2 0,-4 0,-7 -1,-34 11,-68 40,-84 26,-16 63,-9 84,16 5,6 10,13 13,21 3,7 4,16 4,24 1,31 -15,64 -38,78z"/>
     <path class="fil91" d="M371 4148c-18,0 -36,9 -48,25 -23,33 -25,81 2,112 1,1 1,1 2,2 1,1 1,2 2,3 26,30 69,30 96,2 32,-32 26,-85 -2,-116 -14,-17 -31,-28 -52,-28z"/>
     <path class="fil92" d="M5967 4822c17,4 35,1 50,-9l0 -154c-7,-4 -15,-7 -23,-9 -20,-3 -40,4 -55,20 -8,9 -13,20 -17,33 -1,2 -2,5 -2,8 -1,2 -4,23 -2,12 -7,43 8,90 49,99z"/>
     <path class="fil93" d="M540 4754c0,3 0,5 1,8 7,40 43,67 77,61 20,-3 37,-15 47,-35 11,-20 11,-42 7,-65 2,11 0,-5 -1,-10 -1,-4 -2,-7 -3,-10 -3,-12 -8,-22 -16,-31 -13,-16 -32,-24 -50,-23 -21,2 -39,15 -51,34 -13,20 -16,42 -12,66 0,2 0,3 1,5z"/>
     <path class="fil94" d="M5086 5852c103,-61 8,-213 -61,-259 -1,-1 -2,-1 -2,-1 -1,0 -2,-1 -2,-1 -2,-1 -4,-2 -6,-3 0,0 -1,0 -1,0 -8,-2 -15,-2 -22,1 0,0 0,0 -1,0 0,1 0,1 0,1 -2,0 -4,1 -6,2 -9,5 -17,14 -21,29 -13,59 -12,126 12,181 25,54 76,69 110,50zm-45 -113c0,0 0,-1 0,-1 3,6 5,11 7,17 0,1 1,3 1,5 -3,-6 -6,-13 -8,-21z"/>
     <path class="fil95" d="M1625 5619c0,-1 0,-1 0,-1 -4,-14 -12,-23 -22,-27 -4,-2 -8,-4 -13,-4 0,0 -1,0 -2,0 -2,0 -3,0 -5,0 -5,0 -11,2 -17,6 -70,46 -164,198 -61,259 3,1 8,5 15,7 13,4 27,4 39,0 23,-8 42,-28 53,-52 26,-56 28,-125 14,-186 0,-1 -1,-1 -1,-2zm-84 143c0,-3 1,-5 2,-7 1,-6 4,-11 6,-16 -2,8 -4,15 -8,23z"/>
     <path class="fil96" d="M4629 1159c0,0 1,1 1,1 54,33 106,-45 65,-98 -1,-2 -3,-3 -4,-5 -7,-9 -15,-18 -22,-27 -40,-48 -82,-94 -126,-136 -19,-19 -39,-37 -60,-55 0,0 0,0 0,0 -3,-2 -6,-5 -8,-7 2,-3 5,-5 8,-7 0,0 0,-1 0,-1 21,-18 41,-36 60,-55 54,-51 105,-107 152,-167 40,-52 -9,-129 -63,-99 0,0 -1,0 -2,1 -126,76 -237,178 -346,284 -21,20 -21,68 0,88 108,105 219,207 345,283z"/>
     <path class="fil97" d="M3578 2388c0,0 -1,-1 -1,-2 -65,-148 -153,-276 -244,-403 -17,-25 -58,-25 -76,0 -90,126 -177,254 -243,401 0,1 0,1 -1,2 -28,63 39,124 85,75 1,-1 2,-3 3,-4 9,-9 16,-18 24,-26 41,-46 80,-95 116,-146 17,-23 32,-46 48,-70 0,0 0,-1 0,-1 2,-3 4,-6 6,-9 2,3 4,6 6,9 0,0 0,1 1,1 15,24 31,47 47,70 44,62 92,121 144,176 45,47 110,-10 85,-73z"/>
     <path class="fil98" d="M1962 505c-1,-1 -1,-1 -2,-1 -54,-33 -106,44 -65,98 2,1 3,3 4,4 8,10 15,19 23,28 39,48 81,93 125,135 20,19 40,37 60,55 0,0 1,1 1,1 2,2 5,4 8,7 -3,2 -6,5 -8,7 0,0 -1,0 -1,0 -20,18 -40,36 -60,55 -54,52 -104,107 -152,168 -40,52 9,129 63,99 1,0 2,-1 2,-1 127,-76 238,-178 347,-284 21,-20 20,-68 0,-88 -109,-106 -219,-207 -345,-283z"/>
     <path class="fil99" d="M3390 -193c-17,-19 -44,-27 -64,-10 -11,8 -21,16 -31,24 -10,-8 -20,-16 -30,-24 -20,-16 -48,-9 -65,10 -1,2 -3,4 -4,6 -17,26 -14,57 4,82 18,25 37,49 57,72 9,11 21,17 33,18 4,0 7,0 10,0 12,-1 24,-7 33,-18 20,-23 39,-47 57,-72 18,-24 22,-57 5,-82 -2,-2 -3,-4 -5,-6z"/>
     <path class="fil100" d="M4100 943c20,20 49,25 71,5 1,-2 3,-4 5,-6 16,-19 22,-51 8,-75 -7,-12 -14,-23 -21,-35 7,-12 14,-24 21,-36 14,-23 8,-56 -8,-75 -2,-2 -4,-3 -5,-5 -23,-20 -50,-16 -71,5 -21,21 -42,43 -62,67 -9,10 -14,24 -15,38 0,4 0,8 0,11 1,14 6,28 15,39 20,23 41,45 62,67z"/>
     <path class="fil101" d="M3201 1857c16,18 44,26 64,10 10,-8 20,-16 30,-25 10,9 20,17 31,25 19,16 48,8 64,-10 2,-2 3,-4 5,-6 16,-26 13,-58 -5,-82 -18,-25 -37,-50 -57,-73 -9,-10 -21,-16 -33,-17 -3,-1 -6,-1 -9,0 -13,1 -25,7 -34,17 -20,24 -39,48 -57,73 -17,24 -22,56 -4,82 1,2 3,4 5,6z"/>
     <path class="fil102" d="M2490 721c-20,-20 -48,-25 -70,-5 -2,2 -4,4 -5,6 -16,19 -23,51 -9,74 7,12 14,24 21,36 -7,12 -14,23 -21,35 -14,23 -7,56 9,75 1,2 3,4 5,6 22,19 49,15 70,-5 22,-22 43,-44 63,-67 9,-11 14,-24 15,-39 0,-3 0,-7 0,-11 -1,-14 -6,-28 -15,-38 -20,-24 -41,-46 -63,-67z"/>
     <path class="fil103" d="M2473 -125c-208,242 222,445 369,515 25,12 45,0 55,-21 19,-12 29,-35 19,-65 -60,-171 -235,-672 -443,-429zm188 73c25,25 32,63 25,97 -3,13 -7,24 -13,35 -3,5 -7,10 -11,15 -4,5 -8,9 -12,12 -9,8 -19,13 -30,15 -32,9 -66,-3 -88,-35 -22,-33 -24,-76 -9,-112 2,-4 4,-8 6,-12 3,-5 5,-9 9,-13 3,-4 7,-8 12,-11 3,-2 6,-4 10,-6 32,-19 71,-13 101,15z"/>
     <path class="fil104" d="M3675 304c-11,30 0,53 18,65 10,21 30,33 56,21 146,-70 577,-273 368,-515 -208,-243 -383,258 -442,429zm260 -361c28,-25 65,-27 96,-10 4,2 7,5 11,7 4,3 7,6 11,10 3,4 6,9 9,14 2,4 3,7 5,11 16,38 12,84 -13,118 -21,30 -54,38 -83,29 -11,-3 -21,-8 -30,-15 -5,-4 -9,-7 -13,-12 -4,-5 -7,-10 -11,-15 -6,-10 -10,-22 -13,-34 -7,-37 3,-78 31,-103z"/>
     <path class="fil105" d="M4117 1789c209,-243 -222,-446 -368,-516 -26,-12 -46,1 -56,22 -18,12 -29,35 -18,65 59,171 234,671 442,429zm-187 -74c-26,-25 -33,-62 -25,-97 2,-12 7,-24 13,-35 3,-5 6,-10 10,-15 4,-4 8,-8 13,-12 9,-7 19,-12 29,-15 32,-9 67,4 88,36 22,33 24,76 9,111 -2,5 -4,9 -6,13 -2,5 -5,9 -8,13 -4,4 -8,7 -12,10 -3,3 -7,5 -10,6 -33,19 -72,14 -101,-15z"/>
     <path class="fil106" d="M2842 1273c-147,70 -577,273 -369,516 208,242 383,-259 443,-429 10,-30 0,-53 -19,-65 -10,-21 -30,-34 -55,-22zm-187 447c-28,25 -65,28 -95,10 -4,-2 -8,-4 -11,-7 -4,-2 -8,-5 -11,-9 -4,-5 -7,-9 -9,-14 -2,-4 -4,-8 -6,-12 -16,-38 -11,-83 13,-117 22,-30 54,-38 84,-30 10,3 20,8 30,16 4,3 8,7 12,11 4,5 8,10 11,15 6,11 11,23 13,35 7,37 -3,77 -31,102z"/>
     <path class="fil107" d="M3438 839c3,-91 -52,-152 -122,-170 -6,-3 -13,-4 -21,-4 -7,0 -14,1 -21,4 -67,17 -122,75 -122,163 1,90 65,166 143,166 76,0 140,-72 143,-159z"/>
     <path class="fil108" d="M1839 -289c48,48 110,72 176,74 2,1 4,1 6,2 14,3 27,-1 38,-8 22,-12 32,-41 30,-68l-250 0z"/>
     <path class="fil109" d="M4502 -289c-3,27 7,56 30,68 10,7 23,11 38,8 2,-1 4,-1 6,-2 66,-1 127,-26 175,-74l-249 0z"/>
     <path class="fil110" d="M4788 2507c9,-154 92,-295 31,-449 -45,-116 -139,-177 -243,-180 -2,0 -4,-1 -6,-1 -15,-3 -28,0 -38,8 -47,25 -40,122 21,118 3,0 6,0 9,0 117,46 117,250 36,345 -82,95 -258,94 -297,-43 0,-3 0,-6 1,-9 2,-71 -81,-79 -102,-25 -7,12 -10,27 -7,45 0,2 1,4 1,7 2,121 55,230 154,283 132,70 254,-26 386,-36 31,-3 52,-27 54,-63z"/>
     <path class="fil111" d="M1856 2570c132,10 254,106 386,36 99,-53 152,-162 154,-283 1,-3 1,-5 2,-7 2,-18 -1,-32 -7,-45 -22,-54 -105,-46 -102,25 0,3 0,7 0,10 -39,137 -215,137 -296,42 -82,-95 -81,-300 36,-345 3,0 6,0 9,0 60,4 67,-93 21,-118 -11,-8 -24,-11 -38,-8 -2,0 -4,1 -6,1 -105,3 -199,64 -244,180 -60,154 22,295 31,449 3,36 23,60 54,63z"/>
     <path class="fil112" d="M1215 1785c0,2 0,3 -1,5 -1,4 -2,8 -3,12 0,5 -1,10 -2,14 -29,116 -108,180 -209,206 -1,0 -1,0 -1,0 -43,-4 -81,9 -104,62 -34,81 31,154 96,167 212,46 304,-231 299,-428 1,-4 2,-9 3,-13 9,-59 -68,-84 -78,-25z"/>
     <path class="fil113" d="M4515 3514c39,-247 -199,-354 -368,-348 -4,-1 -8,-2 -12,-3 -50,-11 -72,79 -21,90 2,0 3,1 5,1 3,2 6,3 10,4 4,1 8,2 12,3 99,33 154,125 177,243 0,0 0,1 0,1 -4,49 7,95 53,120 69,40 132,-36 144,-111z"/>
     <path class="fil114" d="M5375 -121c0,-2 1,-4 1,-6 1,-3 3,-7 3,-12 1,-4 2,-9 3,-14 14,-57 41,-102 76,-136l-148 0c-8,44 -11,89 -10,129 -1,5 -2,9 -3,14 -9,59 68,84 78,25z"/>
     <path class="fil115" d="M1130 -289c36,33 64,75 79,135 1,5 2,10 2,15 1,5 2,9 3,12 1,2 1,4 1,6 10,59 87,34 78,-25 -1,-5 -2,-9 -3,-14 1,-40 -2,-85 -9,-129l-151 0z"/>
     <path class="fil116" d="M2220 3625c44,-25 56,-69 53,-117 27,-119 72,-212 176,-247 4,-1 8,-2 13,-3 4,-1 7,-2 10,-4 1,0 3,-1 5,-1 50,-11 29,-101 -22,-90 -4,1 -8,2 -11,3 -169,-6 -407,101 -368,348 12,75 74,151 144,111z"/>
     <path class="fil117" d="M5599 2251c65,-13 130,-86 96,-167 -22,-52 -60,-65 -101,-62 -102,-32 -182,-85 -212,-205 -1,-5 -2,-10 -3,-15 0,-4 -2,-8 -3,-12 0,-2 -1,-3 -1,-5 -10,-59 -87,-34 -78,25 1,4 2,9 3,13 -5,197 87,474 299,428z"/>
     <path class="fil118" d="M1539 2046c-26,-57 -76,-106 -113,-154 -3,-4 -7,-7 -11,-10 -22,-26 -70,-16 -69,31 2,89 32,291 146,255 46,-15 69,-73 47,-122z"/>
     <path class="fil119" d="M4443 2931c-13,-54 -63,-81 -105,-55 -49,30 -91,89 -132,132 -4,4 -6,8 -8,12 -23,26 -14,83 26,81 77,-2 250,-37 219,-170z"/>
     <path class="fil120" d="M5115 -289c17,21 34,41 49,60 4,5 7,8 11,10 22,27 71,17 70,-31 0,-11 -1,-24 -2,-39l-128 0z"/>
     <path class="fil121" d="M1348 -289c-1,15 -2,28 -2,39 -1,47 47,58 69,31 4,-2 8,-5 11,-10 15,-20 33,-39 49,-60l-127 0z"/>
     <path class="fil122" d="M2384 3008c-40,-42 -80,-98 -127,-129 -43,-29 -96,-5 -109,52 -32,133 142,168 218,170 41,2 49,-55 27,-81 -2,-4 -5,-8 -9,-12z"/>
     <path class="fil123" d="M5098 2168c114,36 145,-166 147,-255 1,-47 -48,-57 -70,-31 -4,3 -7,6 -11,10 -36,47 -83,94 -110,148 -26,50 -4,113 44,128z"/>
     <path class="fil124" d="M1330 2348c47,-13 71,-83 41,-128 -28,-43 -91,-41 -115,8 0,0 -1,1 -1,2 -2,3 -4,7 -5,12 -19,57 31,119 80,106zm-3 -82l0 0 0 0c0,0 0,0 0,1 0,0 0,0 0,1 0,-1 0,-1 0,-2z"/>
     <path class="fil125" d="M4597 3119c-10,-55 -71,-82 -109,-48 -37,34 -35,107 6,135 1,0 1,0 2,1 3,2 6,4 10,6 49,22 102,-36 91,-94zm-69 4c0,0 0,0 1,0 -1,0 -1,0 -1,0l-1 0 0 0c0,0 0,0 1,0z"/>
     <path class="fil126" d="M2084 3213c4,-1 7,-4 10,-6 1,0 1,-1 2,-1 42,-28 44,-101 7,-135 -39,-34 -99,-7 -110,48 -11,58 42,116 91,94z"/>
     <path class="fil127" d="M5334 2228c-24,-49 -86,-51 -115,-8 -30,45 -6,115 41,128 50,13 99,-49 81,-106 -2,-4 -3,-8 -5,-12 -1,0 -1,-1 -2,-2z"/>
     <path class="fil128" d="M3417 4753c-46,-165 -72,-335 -82,-508 -3,-60 -77,-60 -80,0 -9,165 -33,328 -75,486 -17,64 -90,202 -19,259 68,54 109,-38 134,-153 26,115 67,207 135,153 67,-54 4,-176 -13,-237zm-209 179c-51,0 -52,-91 -3,-94 1,0 2,0 3,0 11,0 20,5 26,12 23,24 14,82 -26,82zm122 -189c-4,9 -11,18 -21,22 -4,1 -9,2 -14,2 -5,0 -9,-1 -13,-2 -10,-4 -17,-12 -21,-22 -8,-20 -5,-45 9,-59 2,-2 4,-3 6,-5 5,-3 12,-5 19,-5 8,0 14,2 19,5 2,2 4,3 6,5 14,14 18,39 10,59zm53 189c-40,0 -49,-56 -27,-82 6,-7 15,-12 27,-12 0,0 1,0 2,0 49,3 49,94 -2,94z"/>
     <path class="fil129" d="M92 922c89,-22 180,-36 271,-43 52,-4 52,-90 0,-94 -91,-7 -182,-21 -271,-43l0 180z"/>
     <path class="fil130" d="M92 1406c12,-21 22,-40 31,-52 89,-124 191,-234 301,-331 41,-35 6,-111 -40,-80 -94,61 -191,114 -292,156l0 113c6,8 9,19 9,29 0,2 0,4 0,6 -1,10 -4,20 -9,28l0 131z"/>
     <path class="fil131" d="M3890 4726c22,-90 -104,-161 -146,-202 -106,-103 -201,-221 -284,-350 -30,-47 -96,-7 -70,47 69,141 124,288 164,443 16,66 19,229 101,241 91,14 80,-99 45,-219 79,85 164,143 190,40zm-278 -145c0,-2 1,-4 2,-6 5,-14 16,-25 32,-26 1,0 2,0 3,0 1,0 1,0 2,0 23,1 35,21 36,42 1,12 -1,24 -7,34 -5,7 -12,13 -20,15 -4,1 -7,2 -11,2 -7,0 -13,-2 -18,-5 -18,-10 -24,-35 -19,-56zm40 256c-42,0 -50,-63 -23,-85 6,-5 14,-9 23,-9 3,0 6,1 8,1 44,9 41,93 -8,93zm147 -113c-36,0 -47,-46 -32,-73 3,-6 6,-10 11,-14 6,-4 13,-7 21,-7 52,0 52,94 0,94z"/>
     <path class="fil132" d="M92 565c101,41 198,94 292,156 46,30 81,-46 40,-81 -105,-92 -203,-197 -289,-314 -11,-16 -26,-43 -43,-71l0 134c5,7 8,17 9,27 0,2 0,4 0,6 0,11 -3,21 -9,29l0 114z"/>
     <path class="fil133" d="M3200 4221c26,-54 -39,-94 -69,-47 -80,123 -170,237 -270,337 -44,43 -184,121 -160,215 26,102 110,46 189,-39 -35,119 -46,230 45,218 79,-10 82,-158 97,-221 39,-162 97,-316 168,-463zm-409 503c-52,0 -52,-94 0,-94 9,0 16,3 21,7 8,6 13,15 16,25 7,27 -5,62 -37,62zm147 113c-50,0 -51,-87 -5,-93 2,0 3,-1 5,-1 10,0 17,4 23,9 27,23 19,85 -23,85zm22 -200c-5,3 -11,5 -18,5 -4,0 -8,0 -11,-1 -9,-3 -16,-9 -21,-17 -5,-9 -8,-21 -7,-33 2,-21 14,-40 36,-42 1,0 2,0 3,0 1,0 2,0 3,0 16,1 27,12 32,26 0,2 1,4 2,6 5,21 -1,46 -19,56z"/>
     <path class="fil134" d="M475 1060c-64,143 -139,279 -229,402 -38,52 -154,144 -119,231 38,99 114,25 182,-76 -18,124 -13,237 73,209 76,-25 59,-163 65,-228 15,-172 51,-339 101,-502 16,-50 -53,-83 -73,-36zm-267 617c-51,0 -51,-94 0,-94 6,0 11,1 15,3 11,5 18,15 22,27 8,27 -4,64 -37,64zm111 -123c-7,-8 -11,-20 -12,-32 -1,-21 9,-43 30,-48 1,-1 3,-1 5,-1 1,0 3,-1 4,-1 15,0 26,8 32,20 1,1 2,3 2,5 8,19 5,46 -10,60 -6,5 -14,9 -24,9 -2,0 -3,0 -5,-1 -9,-1 -16,-5 -22,-11zm51 203c-47,0 -51,-75 -14,-90 4,-2 8,-3 14,-3 8,0 15,2 21,6 29,22 22,87 -21,87z"/>
     <path class="fil135" d="M4149 4223c-21,-88 -140,-68 -195,-75 -148,-18 -292,-59 -432,-118 -43,-18 -71,61 -31,85 123,75 240,161 345,266 46,45 124,180 199,140 85,-46 21,-134 -65,-213 106,21 203,15 179,-85zm-225 47c0,9 -3,19 -8,26 -6,9 -15,14 -26,16 -2,0 -3,0 -4,0 -22,0 -34,-16 -38,-35 0,-2 -1,-4 -1,-6 -1,-16 3,-33 14,-43 2,-1 3,-2 5,-3 5,-4 12,-7 20,-7 14,0 25,8 31,19 6,9 8,21 7,33zm57 108c52,0 51,94 0,94 -32,0 -44,-35 -37,-62 3,-13 10,-23 21,-28 5,-2 10,-4 16,-4zm32 -124c-3,-13 -2,-28 3,-41 6,-13 17,-22 34,-22 52,0 52,93 0,93 -20,0 -32,-13 -37,-30z"/>
     <path class="fil136" d="M127 -30c-33,84 70,165 107,216 96,127 174,268 241,418 20,46 89,14 73,-36 -48,-156 -83,-316 -99,-480 -7,-67 13,-225 -67,-251 -86,-27 -91,85 -73,209 -68,-101 -144,-175 -182,-76zm117 84c-4,10 -11,19 -21,23 -4,2 -9,4 -15,4 -51,0 -51,-94 0,-94 34,0 46,39 36,67zm126 -148c43,0 50,66 21,87 -6,4 -13,7 -21,7 -5,0 -9,-1 -13,-2 -39,-14 -34,-92 13,-92zm-51 204c6,-7 13,-11 22,-12 2,0 3,0 5,0 10,0 18,3 24,9 15,14 18,40 10,60 0,2 -1,3 -2,5 -6,11 -17,19 -32,19 -1,0 -3,0 -4,0 -2,0 -4,-1 -6,-1 -20,-5 -30,-27 -29,-48 1,-13 5,-24 12,-32z"/>
     <path class="fil137" d="M2620 4309c-86,78 -150,166 -65,212 72,38 142,-82 185,-126 110,-111 231,-202 359,-280 40,-24 12,-103 -31,-85 -133,56 -270,97 -412,116 -57,7 -193,-16 -215,77 -24,101 73,106 179,86zm53 -72c7,-11 17,-19 32,-19 8,0 14,3 20,7 1,1 3,2 4,3 11,10 16,27 14,43 0,2 0,4 -1,6 -3,19 -16,35 -37,35 -2,0 -3,0 -4,0 -12,-2 -20,-7 -26,-16 -5,-7 -8,-17 -9,-26 -1,-12 2,-24 7,-33zm-27 172c8,28 -4,63 -36,63 -52,0 -52,-94 0,-94 7,0 13,2 18,5 9,6 15,15 18,26zm-106 -218c17,0 28,9 34,22 5,12 7,26 3,39 -4,18 -16,32 -37,32 -51,0 -51,-93 0,-93z"/>
     <path class="fil138" d="M3295 5773c-44,1 -79,56 -85,102 -8,65 24,121 50,175l71 0c25,-54 57,-110 49,-175 -5,-45 -41,-103 -85,-102z"/>
     <path class="fil139" d="M3642 5426c-42,20 -62,84 -52,134 11,60 52,101 86,143 12,15 26,17 38,13 14,-3 26,-13 30,-33 11,-61 31,-126 8,-187 -16,-44 -66,-91 -110,-70z"/>
     <path class="fil140" d="M2838 5496c-23,61 -3,126 9,187 4,20 16,30 29,33 12,4 26,2 38,-13 34,-43 76,-83 87,-143 9,-50 -10,-114 -53,-134 -43,-21 -94,26 -110,70z"/>
     <path class="fil141" d="M4377 4951c-37,-28 -107,-32 -134,19 -27,51 3,122 41,151 38,29 84,32 128,37 4,1 9,2 13,1 0,1 0,1 0,1 22,3 40,-24 41,-47 0,-9 -2,-16 -5,-23 -1,0 -1,-1 -1,-1 -22,-50 -40,-105 -83,-138z"/>
     <path class="fil142" d="M2213 4951c-42,33 -60,88 -83,138 0,1 0,2 -1,3 -2,6 -4,13 -4,21 0,23 18,50 40,47 0,0 0,0 0,0 5,0 9,-1 14,-2 44,-5 89,-8 127,-37 38,-29 68,-100 41,-151 -27,-51 -96,-47 -134,-19z"/>
     <path class="fil143" d="M5297 5023c100,108 232,117 361,88 97,-22 190,-63 290,-71 23,-2 46,-2 69,-1l0 -92c-41,-3 -83,-1 -125,6 -39,6 -80,18 -122,31 -5,-1 -10,0 -16,2 -135,43 -262,53 -367,-75 -116,-140 -106,-338 7,-473 47,-40 103,-65 161,-67 20,-1 39,1 58,6 4,3 9,5 15,5 0,0 0,0 0,0 27,10 52,26 72,49 27,32 42,71 44,117 -6,62 -27,96 -60,101 42,-93 -45,-200 -137,-155 -130,63 -108,278 21,319 128,41 261,-67 281,-216 22,-162 -82,-291 -215,-307 -96,-22 -208,9 -288,74 -2,0 -3,1 -4,2 -9,8 -17,15 -25,24 -163,164 -181,457 -20,633z"/>
     <path class="fil144" d="M319 5122c181,-106 349,-88 538,-31 121,35 255,63 370,-11 191,-125 232,-421 103,-620 -20,-31 -45,-59 -73,-84 -1,-2 -3,-3 -4,-5 -5,-6 -11,-10 -17,-12 -93,-72 -213,-104 -311,-63 -116,30 -201,148 -184,295 17,154 151,261 281,222 128,-39 150,-241 31,-314 -92,-56 -192,52 -147,150 -33,-5 -53,-39 -60,-101 0,-37 10,-68 30,-94 33,-53 78,-74 132,-80 67,-8 133,17 188,62 0,1 0,1 0,1 114,137 123,333 7,474 -104,129 -232,118 -367,75 -6,-2 -11,-3 -16,-2 -41,-13 -82,-25 -121,-31 -147,-23 -289,11 -420,88 -47,27 -6,108 40,81z"/>
     <path class="fil145" d="M92 3195c38,17 74,44 106,80 34,55 55,120 57,188 1,22 -1,45 -5,67 -3,5 -4,11 -5,18 0,0 0,0 0,0 -8,31 -21,60 -42,83 -27,32 -61,49 -100,52 -4,-1 -8,-1 -11,-2l0 127c124,4 220,-110 233,-254 18,-111 -8,-242 -64,-335 0,-2 -1,-3 -2,-4 -6,-11 -13,-21 -20,-30 -41,-55 -92,-96 -147,-122l0 132zm0 423c50,-22 84,-92 58,-165 -13,-36 -34,-62 -58,-79l0 244z"/>
     <path class="fil146" d="M686 5930c-10,-11 -24,-15 -37,-12 -6,-1 -11,-2 -17,-2 -46,3 -86,60 -68,113 2,8 6,15 10,21l123 0c20,-35 17,-88 -11,-120z"/>
     <path class="fil147" d="M5942 5919c-13,-4 -27,-1 -38,11 -27,31 -32,84 -10,120l123 0 0 -96c-10,-16 -24,-28 -40,-34 -12,-4 -24,-4 -35,-1z"/>
     <path class="fil148" d="M586 5492c-5,-17 -16,-29 -29,-33 -2,-2 -5,-5 -8,-7 -38,-26 -93,-4 -108,45 -16,54 23,115 71,116 52,1 92,-65 74,-121z"/>
     <path class="fil149" d="M6017 5469c-6,6 -10,14 -13,23 -9,28 -3,60 13,84l0 -107z"/>
     <path class="fil150" d="M287 5531c-5,-16 -16,-28 -29,-32 -3,-3 -5,-5 -8,-7 -39,-27 -93,-4 -108,45 -16,54 23,115 71,115 51,1 91,-64 74,-121z"/>
    </g>
   </g>
  </g>
  <path class="fil151" d="M2459 995c197,-75 412,-105 616,-105 152,0 328,26 527,78 201,52 388,121 561,206l-64 814 -79 -66c-22,-60 -47,-125 -75,-193 -29,-70 -53,-132 -76,-188 -47,-119 -123,-222 -228,-310 -104,-88 -221,-146 -353,-176l-5 5c-92,-22 -173,-33 -243,-33 -182,0 -339,34 -470,104m377 1848c-4,-1 -9,-3 -13,-4 1,-2 3,-4 5,-6m1106 1347c-121,91 -262,155 -408,199 -163,48 -344,72 -543,72 -226,0 -463,-24 -710,-72 -248,-49 -463,-113 -646,-195l67 -815 78 67c13,26 27,56 39,87 13,31 24,61 33,86 78,191 205,348 381,473 176,125 375,198 596,221 57,7 113,5 170,5 260,0 470,-61 628,-181 60,-46 108,-97 146,-153m2085 -4059c0,11 -11,33 -37,66 -13,22 -23,42 -29,58l-84 0c-152,6 -275,56 -370,149 -96,94 -143,219 -143,375l0 3998 0 729 -341 0 -360 -438 -3489 -4249 0 3883c0,157 47,283 142,381 95,97 220,145 372,145l86 0 66 125 -666 0 -141 0 -131 0 -663 0c20,-50 33,-80 42,-92 10,-11 18,-22 25,-33l85 0c151,0 275,-48 369,-145 95,-98 142,-224 142,-381l0 -3920c0,-158 -47,-282 -142,-378 -94,-93 -218,-143 -369,-149l-85 0c-13,-16 -26,-36 -39,-58 -18,-22 -28,-44 -28,-66 215,11 438,11 673,0l131 0 141 0 569 0 3350 4096 0 -3445c0,-158 -47,-282 -143,-378 -95,-93 -220,-143 -372,-149l-85 0c-13,-16 -26,-36 -37,-58 -20,-22 -30,-44 -30,-66 215,11 442,11 676,0l131 0 141 0c234,11 454,11 663,0l-20 0z"/>
 </g>
</svg>
