<?xml version="1.0" encoding="UTF-8"?>
<!DOCTYPE svg PUBLIC "-//W3C//DTD SVG 1.1//EN" "http://www.w3.org/Graphics/SVG/1.1/DTD/svg11.dtd">
<!-- Creator: CorelDRAW X7 -->
<svg xmlns="http://www.w3.org/2000/svg" xml:space="preserve" width="100%" height="100%" version="1.1" style="shape-rendering:geometricPrecision; text-rendering:geometricPrecision; image-rendering:optimizeQuality; fill-rule:evenodd; clip-rule:evenodd"
viewBox="0 0 8450 8757"
 xmlns:xlink="http://www.w3.org/1999/xlink">
 <defs>
  <style type="text/css">
   <![CDATA[
    .fil0 {fill:#050505}
    .fil1 {fill:#050505;fill-rule:nonzero}
   ]]>
  </style>
 </defs>
 <g id="Camada_x0020_1">
  <metadata id="CorelCorpID_0Corel-Layer"/>
  <g id="_1999261892064">
   <path class="fil0" d="M4311 5937c-51,-84 -154,-114 -239,-70 -5,2 -486,251 -804,384 -4,2 -8,3 -11,4 -8,2 -17,4 -26,4 -132,0 -336,-214 -440,-367l-904 -2105c-48,-213 -57,-534 48,-608 3,-3 6,-5 9,-7 59,-31 126,-65 194,-99 1,0 2,0 3,-1 19,-6 37,-15 52,-26 270,-132 552,-256 555,-258 88,-38 134,-140 108,-236l-655 -2379c-15,-55 -52,-100 -101,-124 -49,-24 -106,-24 -155,-1l-603 288c0,1 -1,1 -2,2 -9,4 -18,9 -26,15 -1,1 -1,1 -2,2 -8,6 -17,13 -24,21l-1 1 -931 979c-22,24 -39,53 -47,85 -18,64 -419,1592 644,4066 1160,2697 2438,3173 2491,3192 19,6 39,10 59,10 5,0 9,-1 13,-1l1313 -93c22,-2 44,-7 65,-17l13 -7c25,-4 49,-13 71,-29 7,-4 12,-8 18,-13l500 -239c49,-24 86,-69 102,-124 15,-54 7,-113 -22,-161l-1265 -2088zm-2408 -5437l548 1994c-68,31 -154,71 -246,114l-560 -1984 258 -124zm1631 7812c-86,-39 -346,-176 -691,-518 -714,-706 -1237,-1722 -1550,-2450 -523,-1218 -666,-2185 -693,-2782 -23,-515 33,-850 57,-966l673 -709 533 1889c-31,15 -60,31 -88,46 -17,9 -33,19 -49,30 -117,83 -255,265 -246,659 5,205 47,382 49,389 2,11 6,22 11,33l919 2138c4,10 10,20 16,30 37,56 370,551 756,551 42,0 82,-6 122,-17 18,-5 36,-11 53,-18 40,-17 81,-35 124,-54l1029 1676 -1025 73zm1409 -170l-1068 -1741c79,-39 152,-75 211,-105l1060 1749 -203 97z"/>
   <path class="fil0" d="M8315 4357c0,-1067 -461,-2080 -1235,-2708 -81,-67 -199,-51 -261,35 -63,86 -48,210 33,276 683,555 1090,1451 1090,2397 0,1106 -542,2105 -1398,2613l322 -720c44,-98 4,-215 -89,-261 -93,-47 -204,-5 -248,94l-528 1180c-25,55 -24,119 2,173 26,54 74,93 130,104l1296 270c12,3 24,4 36,4 88,0 166,-65 183,-159 20,-106 -46,-210 -147,-231l-712 -148c937,-588 1526,-1697 1526,-2919z"/>
   <path class="fil1" d="M4146 2608c0,27 8,49 25,67 16,19 35,29 59,29 23,0 43,-10 60,-29 15,-18 24,-40 24,-67l0 -2109c0,-33 -12,-59 -35,-78 -25,-20 -50,-23 -77,-11l-475 196c-23,10 -38,27 -47,50 -11,25 -12,49 -3,74 7,24 22,42 43,54 21,11 42,12 64,3l362 -150 0 1971z"/>
   <path id="1" class="fil1" d="M6209 2608c0,-27 -7,-49 -23,-67 -17,-20 -37,-29 -58,-29l-766 0 737 -1228c3,-5 6,-11 9,-16 30,-79 46,-163 46,-250 0,-169 -52,-313 -157,-434 -105,-120 -231,-179 -378,-179 -147,0 -273,59 -378,179 -105,121 -157,265 -157,434 0,12 1,26 2,40 1,27 10,48 28,65 17,18 37,26 60,24 23,-2 42,-12 57,-31 16,-20 23,-44 21,-71 0,-10 0,-18 0,-27 0,-117 36,-216 107,-298 72,-82 158,-123 260,-123 102,0 188,41 260,123 71,82 107,181 107,298 0,57 -10,112 -29,165l-822 1371c-19,31 -21,65 -6,99 16,34 41,51 74,51l925 0c21,0 41,-10 58,-29 16,-18 23,-40 23,-67z"/>
   <path class="fil1" d="M4083 3854c14,0 26,-5 37,-16 10,-11 15,-24 15,-39l0 -545c0,-15 -5,-27 -15,-38 -11,-11 -23,-16 -37,-16 -14,0 -26,5 -36,16 -10,11 -15,23 -15,38l0 219 -267 0 0 -219c0,-15 -5,-27 -15,-38 -10,-11 -22,-16 -36,-16 -14,0 -26,5 -36,16 -10,11 -15,23 -15,38l0 545c0,15 5,28 15,39 10,11 22,16 36,16 14,0 26,-5 36,-16 10,-11 15,-24 15,-39l0 -218 267 0 0 218c0,15 5,28 15,39 10,11 22,16 36,16z"/>
   <path id="1" class="fil1" d="M4554 3306c58,0 107,22 148,64 41,44 61,96 61,156 0,61 -20,112 -61,155 -41,44 -90,65 -148,65 -57,0 -106,-21 -147,-65 -41,-43 -61,-94 -61,-155 0,-60 20,-112 61,-156 41,-42 90,-64 147,-64zm0 548c86,0 160,-32 220,-96 61,-64 91,-141 91,-232 0,-90 -30,-168 -91,-232 -60,-64 -134,-96 -220,-96 -85,0 -158,32 -219,96 -61,64 -91,142 -91,232 0,91 30,168 91,232 61,64 134,96 219,96z"/>
   <path id="2" class="fil1" d="M5091 3471l0 -165 128 0c25,0 47,8 65,24 18,16 26,36 26,59 0,22 -8,41 -25,57 -17,16 -38,24 -62,25l-132 0zm321 -82c0,-53 -19,-98 -57,-135 -37,-37 -83,-56 -136,-56l-179 0c-14,0 -26,6 -36,17 -10,10 -15,22 -15,37l0 544c0,15 5,28 15,38 10,10 22,16 36,16 14,0 26,-6 36,-16 10,-10 15,-23 15,-38l0 -217 88 0 115 245c9,20 24,30 45,30 8,0 15,-2 23,-6 12,-6 21,-17 25,-31 5,-14 4,-27 -2,-40l-98 -210c37,-14 67,-37 90,-69 23,-33 35,-69 35,-109z"/>
   <path id="3" class="fil1" d="M5665 3607l83 -211 84 211 -167 0zm-150 243c6,2 13,4 20,4 22,0 38,-11 47,-34l41 -105 251 0 41 105c9,23 25,34 48,34 6,0 13,-2 19,-4 13,-6 22,-16 28,-30 5,-13 5,-27 0,-41l-55 -139c0,0 0,0 0,0l-159 -406 0 0c-1,-1 -2,-3 -3,-4 0,0 0,-1 -1,-2 -1,-1 -1,-2 -1,-3 0,0 -1,-1 -2,-2l-1 -2c0,0 -1,-1 -2,-2 -1,-1 -1,-2 -1,-2 -1,0 -2,-1 -2,-2 -1,-1 -2,-1 -2,-1 0,0 -1,-1 -2,-2 -2,-1 -2,-1 -2,-1 0,-1 -1,-1 -3,-2 -1,-1 -2,-1 -1,-1 -3,-2 -6,-3 -10,-4 1,0 0,0 -2,-1 -1,0 -2,0 -3,0 0,0 0,-1 -2,-1 -2,0 -2,0 -2,0 0,0 -1,0 -3,0 -1,0 -2,0 -3,0 0,0 -1,0 -2,0 -1,0 -2,0 -2,0 0,0 -1,0 -3,0 -1,0 -2,1 -3,1l-1 0c-2,1 -3,1 -3,1 -1,0 -2,1 -3,1 -2,1 -3,1 -2,1 0,-1 0,0 -1,1 -2,0 -3,1 -3,1 -1,0 -2,0 -3,1 -1,1 -2,2 -2,2 0,0 -1,1 -2,2 -1,1 -2,1 -2,1 0,0 -1,1 -2,2 -1,0 -1,1 -2,1 0,0 0,1 -1,2 -1,1 -2,2 -2,2 0,1 0,1 -1,2 -1,1 -2,2 -2,2 0,1 0,2 -1,3 -1,1 -1,2 -1,2 -1,1 -2,3 -2,4l0 0 -160 406c0,0 0,0 0,0l-54 139c-6,14 -6,28 0,41 5,14 14,24 27,30z"/>
   <path id="4" class="fil1" d="M6498 3659c2,-46 -13,-87 -43,-121 -38,-42 -92,-64 -163,-65l-2 0c-42,0 -72,-11 -90,-30 -11,-13 -16,-28 -16,-43 1,-26 11,-48 31,-66 19,-18 43,-27 70,-27 26,0 50,5 70,15 24,12 38,28 43,48 4,14 12,25 24,33 12,7 25,9 38,5 14,-3 24,-12 31,-24 7,-13 9,-27 6,-41 -13,-49 -41,-86 -86,-111 -37,-22 -79,-32 -126,-32 -54,0 -101,19 -140,56 -39,38 -60,84 -62,139 -2,46 12,86 43,121 38,42 92,63 162,64 1,0 1,0 1,0 0,0 0,0 1,0l1 0c42,1 72,11 90,31 11,13 16,27 16,43 -2,26 -12,48 -31,66 -20,18 -43,27 -70,27 -27,0 -50,-5 -71,-15 -23,-12 -37,-28 -43,-48 -3,-15 -11,-26 -23,-33 -12,-8 -25,-9 -38,-6 -14,4 -24,12 -32,25 -7,13 -8,26 -5,41 12,48 41,85 85,111 38,21 80,32 127,32 54,0 101,-19 140,-57 39,-37 60,-84 62,-138z"/>
  </g>
 </g>
</svg>
