<?xml version="1.0" encoding="UTF-8"?>
<!DOCTYPE svg PUBLIC "-//W3C//DTD SVG 1.1//EN" "http://www.w3.org/Graphics/SVG/1.1/DTD/svg11.dtd">
<!-- Creator: CorelDRAW X7 -->
<svg xmlns="http://www.w3.org/2000/svg" xml:space="preserve" width="100%" height="100%" version="1.1" style="shape-rendering:geometricPrecision; text-rendering:geometricPrecision; image-rendering:optimizeQuality; fill-rule:evenodd; clip-rule:evenodd"
viewBox="0 0 6805 8757"
 xmlns:xlink="http://www.w3.org/1999/xlink">
 <defs>
  <style type="text/css">
   <![CDATA[
    .fil0 {fill:#050505}
   ]]>
  </style>
 </defs>
 <g id="Camada_x0020_1">
  <metadata id="CorelCorpID_0Corel-Layer"/>
  <g id="_1998631552448">
   <path class="fil0" d="M1297 1051l-721 0c-267,0 -485,205 -485,458l0 6729c0,253 218,458 485,458l5678 0c267,0 485,-205 485,-458l0 -6729c0,-253 -218,-458 -485,-458l-721 0c-14,-253 -222,-454 -476,-454l-467 0c-61,-328 -365,-578 -729,-578l-785 0c-365,0 -669,250 -729,578l-574 0c-254,0 -462,201 -476,454zm4215 702l351 0 0 5943 -4905 0 0 -5943 361 0c61,193 242,333 454,333l3284 0c212,0 393,-140 455,-333zm879 -244l0 6729c0,71 -62,130 -137,130l-5678 0c-75,0 -137,-58 -137,-130l0 -6729c0,-72 62,-130 137,-130l720 0 0 45 -511 0c-96,0 -174,74 -174,165l0 6271c0,91 78,164 174,164l5252 0c96,0 174,-73 174,-164l0 -6271c0,-91 -78,-165 -174,-165l-503 0 0 -45 720 0c75,0 137,58 137,130zm-4747 -433c0,-83 58,-150 129,-150l736 0 0 0 0 0c96,0 174,-74 174,-164l0 -44c0,-204 176,-371 393,-371l785 0c216,0 392,167 392,371l0 44c0,0 0,0 0,0 0,91 78,164 174,164l0 0 630 0c71,0 130,67 130,150l0 139c0,0 0,0 0,0 0,0 0,0 0,0l0 392c0,83 -59,150 -130,150l-3284 0c-71,0 -129,-67 -129,-150l0 -392 0 -139z"/>
   <path class="fil0" d="M3381 1339c280,0 508,-215 508,-480 0,-265 -228,-480 -508,-480 -280,0 -508,215 -508,480 0,265 228,480 508,480zm0 -632c88,0 160,68 160,152 0,83 -72,152 -160,152 -89,0 -160,-68 -160,-152 0,-84 72,-152 160,-152z"/>
   <path class="fil0" d="M1240 2988c0,91 77,164 173,164l3923 0c96,0 174,-73 174,-164 0,-91 -78,-164 -174,-164l-3923 0c-96,0 -173,73 -173,164z"/>
   <path class="fil0" d="M3765 3964l-2351 0c-96,0 -174,73 -174,164 0,91 78,164 174,164l2351 0c96,0 174,-74 174,-164 0,-91 -78,-164 -174,-164z"/>
   <path class="fil0" d="M3765 5213l-2351 0c-96,0 -174,74 -174,164 0,91 78,165 174,165l2351 0c96,0 174,-74 174,-165 0,-90 -78,-164 -174,-164z"/>
   <path class="fil0" d="M3765 6463l-2351 0c-96,0 -174,73 -174,164 0,91 78,164 174,164l2351 0c96,0 174,-73 174,-164 0,-91 -78,-164 -174,-164z"/>
   <path class="fil0" d="M5063 3597l-441 435 -122 -155c-56,-73 -165,-89 -243,-35 -77,54 -93,157 -36,230l244 313c30,39 77,63 128,66 4,0 8,1 12,1 47,0 92,-19 125,-51l584 -577c67,-65 64,-169 -5,-232 -69,-63 -180,-61 -246,5z"/>
   <path class="fil0" d="M5063 4901l-441 436 -122 -156c-56,-73 -165,-88 -243,-35 -77,54 -93,157 -36,230l244 313c30,39 77,64 128,67 4,0 8,0 12,0 47,0 92,-18 125,-51l584 -576c67,-66 64,-170 -5,-233 -69,-62 -180,-60 -246,5z"/>
   <path class="fil0" d="M5063 6206l-441 436 -122 -156c-56,-73 -165,-89 -243,-35 -77,54 -93,157 -36,230l244 313c30,39 77,63 128,66 4,1 8,1 12,1 47,0 92,-18 125,-51l584 -577c67,-65 64,-169 -5,-232 -69,-63 -180,-61 -246,5z"/>
  </g>
 </g>
</svg>
