<?xml version="1.0" encoding="UTF-8"?>
<!DOCTYPE svg PUBLIC "-//W3C//DTD SVG 1.1//EN" "http://www.w3.org/Graphics/SVG/1.1/DTD/svg11.dtd">
<!-- Creator: CorelDRAW X7 -->
<svg xmlns="http://www.w3.org/2000/svg" xml:space="preserve" width="100%" height="100%" version="1.1" style="shape-rendering:geometricPrecision; text-rendering:geometricPrecision; image-rendering:optimizeQuality; fill-rule:evenodd; clip-rule:evenodd"
viewBox="0 0 8450 8757"
 xmlns:xlink="http://www.w3.org/1999/xlink">
 <defs>
  <style type="text/css">
   <![CDATA[
    .fil0 {fill:#050505}
   ]]>
  </style>
 </defs>
 <g id="Camada_x0020_1">
  <metadata id="CorelCorpID_0Corel-Layer"/>
  <path class="fil0" d="M316 378l1373 432 790 2010c-17,19 -31,41 -40,67l-385 1210c-13,39 -11,82 4,121l1074 2694c-40,131 -62,270 -62,414 0,765 609,1387 1356,1387 748,0 1356,-622 1356,-1387 0,-122 -16,-241 -45,-354l2449 -1068c87,-38 128,-141 91,-230 -37,-90 -138,-131 -225,-93l-2444 1066c-50,-90 -110,-175 -178,-251l2299 -973c30,-13 54,-38 67,-68 12,-31 12,-65 0,-96l-1190 -2940c-26,-64 -98,-95 -160,-68l-242 103 -841 -2078c-13,-31 -37,-55 -67,-68 -30,-13 -63,-13 -93,0l-2186 925c-30,13 -54,37 -67,68 -12,31 -12,65 0,96l841 2078 -281 119c-63,26 -93,100 -67,164l924 2283c-95,4 -187,18 -277,42l-2113 -5382c-19,-49 -59,-87 -108,-102l-1452 -456c-91,-29 -186,23 -214,116 -28,93 23,191 113,219zm2907 939l606 -256 233 577 749 -317 -233 -577 605 -256 792 1957 -1960 829 -792 -1957zm1203 4973c28,0 56,2 84,4 103,9 202,34 294,72 10,4 19,7 28,12 93,41 178,97 254,163 79,71 148,153 204,245 59,99 103,209 127,326 14,69 22,141 22,214 0,571 -455,1036 -1013,1036 -558,0 -1013,-465 -1013,-1036 0,-374 196,-703 488,-885 96,-60 204,-105 319,-129 66,-14 135,-22 206,-22zm-709 -2612l851 -361 330 815 1006 -426 -329 -815 851 -360 1096 2708 -2293 971c-171,-129 -372,-218 -590,-253l-922 -2279zm-379 2821l-392 -982 474 -299 351 894c-170,97 -317,229 -433,387zm-523 -1312l-416 -1042 269 -843 623 1586 -476 299z"/>
 </g>
</svg>
