<?xml version="1.0" encoding="UTF-8"?>
<!DOCTYPE svg PUBLIC "-//W3C//DTD SVG 1.1//EN" "http://www.w3.org/Graphics/SVG/1.1/DTD/svg11.dtd">
<!-- Creator: CorelDRAW X7 -->
<svg xmlns="http://www.w3.org/2000/svg" xml:space="preserve" width="100%" height="100%" version="1.1" style="shape-rendering:geometricPrecision; text-rendering:geometricPrecision; image-rendering:optimizeQuality; fill-rule:evenodd; clip-rule:evenodd"
viewBox="0 0 8450 8757"
 xmlns:xlink="http://www.w3.org/1999/xlink">
 <defs>
  <style type="text/css">
   <![CDATA[
    .fil0 {fill:#050505}
   ]]>
  </style>
 </defs>
 <g id="Camada_x0020_1">
  <metadata id="CorelCorpID_0Corel-Layer"/>
  <g id="_1998629813088">
   <path class="fil0" d="M4712 1736l-602 0 0 441 -285 0 0 -441 -704 0c-234,0 -437,261 -437,502l0 1024 742 687c48,47 92,138 121,138l1165 0c234,0 396,-152 396,-393l0 -1456c0,-241 -162,-502 -396,-502zm-602 1322l0 588 -428 0 0 -588c-142,0 -210,0 -220,0l455 -555 457 555c0,0 21,0 -264,0z"/>
   <ellipse class="fil0" cx="1111" cy="940" rx="871" ry="898"/>
   <path class="fil0" d="M3252 4599c-56,62 -132,93 -208,93 -69,0 -139,-26 -194,-79l-1170 -1128 0 1729c0,185 -85,348 -214,455l634 2688c38,158 -56,316 -209,355 -22,5 -45,8 -67,8 -128,0 -245,-90 -276,-224l-365 -1544 -205 1479c-22,160 -166,271 -321,248 -156,-23 -264,-171 -242,-331l369 -2655c-146,-106 -242,-281 -242,-479l0 -2276c0,-323 255,-586 569,-586 73,0 142,16 206,41 50,10 98,34 138,72l1783 1720c115,111 121,296 14,414z"/>
   <ellipse class="fil0" cx="7463" cy="940" rx="871" ry="898"/>
   <path class="fil0" d="M5336 4185l1784 -1720c40,-38 88,-62 138,-72 64,-26 133,-41 205,-41 315,0 569,262 569,586l0 2276c0,198 -96,372 -242,479l369 2654c22,161 -86,309 -241,332 -155,23 -299,-88 -322,-249l-205 -1478 -364 1544c-32,134 -148,224 -277,224 -22,0 -44,-3 -67,-9 -152,-38 -246,-197 -209,-354l635 -2688c-130,-108 -214,-270 -214,-455l0 -1729 -1170 1128c-55,53 -125,79 -195,79 -76,0 -151,-31 -207,-93 -108,-118 -102,-303 13,-414z"/>
  </g>
 </g>
</svg>
