<?xml version="1.0" encoding="UTF-8"?>
<!DOCTYPE svg PUBLIC "-//W3C//DTD SVG 1.1//EN" "http://www.w3.org/Graphics/SVG/1.1/DTD/svg11.dtd">
<!-- Creator: CorelDRAW X7 -->
<svg xmlns="http://www.w3.org/2000/svg" xml:space="preserve" width="100%" height="100%" version="1.1" style="shape-rendering:geometricPrecision; text-rendering:geometricPrecision; image-rendering:optimizeQuality; fill-rule:evenodd; clip-rule:evenodd"
viewBox="0 0 8450 8757"
 xmlns:xlink="http://www.w3.org/1999/xlink">
 <defs>
  <style type="text/css">
   <![CDATA[
    .fil0 {fill:#050505}
   ]]>
  </style>
 </defs>
 <g id="Camada_x0020_1">
  <metadata id="CorelCorpID_0Corel-Layer"/>
  <g id="_1999262595536">
   <path class="fil0" d="M393 7215l5087 0c5,0 11,0 16,-1 2,0 5,0 7,-1 3,0 6,-1 9,-1 3,-1 5,-1 8,-2 3,-1 5,-1 8,-2 2,-1 5,-2 7,-3 3,-1 6,-1 8,-3 2,0 5,-2 7,-3 3,-1 5,-2 8,-4 2,-1 4,-2 6,-3 3,-2 5,-3 8,-5 2,-1 4,-3 6,-5 3,-1 5,-3 7,-5 2,-2 5,-4 7,-6 2,-2 3,-3 4,-4l949 -946 188 486 -16 7c-56,22 -87,84 -71,144 4,15 9,31 15,46l588 1524c70,179 241,295 438,295l0 0c63,0 124,-12 183,-35l139 -55c249,-99 375,-376 282,-619l-589 -1524c-5,-15 -12,-30 -19,-44 -28,-55 -93,-79 -149,-57l-16 6 -209 -541c581,-433 829,-1225 553,-1938 -117,-303 -312,-555 -557,-737l0 -2965c0,-93 -75,-169 -167,-169l-5086 0c-2,0 -4,1 -7,1 -3,0 -6,0 -9,0 -3,0 -6,1 -8,1 -3,1 -6,1 -8,2 -3,0 -6,1 -9,2 -2,0 -5,1 -7,2 -3,0 -5,1 -8,2 -3,1 -5,2 -7,3 -3,1 -5,2 -8,4 -2,1 -5,2 -7,3 -2,1 -5,3 -7,4 -2,2 -5,3 -7,5 -3,1 -5,3 -7,5 -2,1 -4,3 -6,4 -3,3 -6,5 -8,8 -2,1 -3,2 -4,3l-1659 1654c0,0 0,0 0,0 -3,4 -6,7 -9,10 -1,1 -2,2 -2,3 -4,4 -7,8 -10,13 -2,2 -3,5 -4,7 -2,2 -3,5 -5,7 -1,3 -2,5 -3,8 -1,2 -3,5 -4,7 -1,2 -1,5 -2,7 -1,3 -2,6 -3,9 -1,2 -1,4 -2,6 -1,4 -2,7 -3,11 0,5 -1,10 -2,15 0,2 0,3 0,5 0,4 -1,8 -1,12 0,0 0,0 0,0l0 5179c1,93 75,168 167,168zm4920 -338l-4753 0 0 -4840 1578 0 0 2607 439 -309 337 309 331 -322 514 322 0 -2607 1554 0 0 1195c-537,443 -758,1204 -492,1892 106,276 277,509 492,686l0 1067zm1906 -1257c-31,26 -64,51 -99,74 -33,23 -67,44 -103,64 -6,4 -12,7 -18,10 -48,26 -97,50 -149,70 -57,23 -116,42 -175,57 -39,9 -79,17 -119,24 -40,6 -81,11 -122,14 -26,1 -52,2 -78,3 -5,0 -9,0 -14,0l0 0c-251,0 -489,-67 -696,-187 -124,-71 -236,-163 -333,-270 -114,-127 -207,-276 -271,-443 -201,-519 -77,-1087 271,-1473 95,-105 207,-197 333,-271 59,-34 121,-65 187,-91 163,-65 334,-97 508,-97 225,0 440,53 631,151 122,62 234,143 333,239 144,139 260,312 336,510 227,587 38,1238 -422,1616zm79 866l-342 137 -2 -4 -192 -498c59,-16 118,-35 175,-58 58,-23 114,-50 168,-78l192 498 1 3zm624 1922l-138 55c-31,12 -64,19 -97,19l0 0c-98,0 -183,-56 -216,-142l-557 -1444c6,-1 12,-2 18,-5l564 -224c6,-2 11,-5 16,-8l558 1443c45,118 -21,256 -148,306zm-2276 -1764l0 -623c151,71 313,120 482,142l-482 481zm695 -3782c-204,0 -404,39 -595,115 -34,13 -67,28 -100,44l0 -1083 1326 -1362 0 2413c-195,-82 -409,-127 -631,-127zm-931 -1163l-1453 0 1272 -1316 1462 0 -1281 1316zm-3290 -1316l1475 0 -1317 1316 -1478 0 1320 -1316z"/>
   <path class="fil0" d="M2512 5514l-1751 0c-33,0 -59,27 -59,60l0 1019c0,33 26,60 59,60l1751 0c33,0 60,-27 60,-60l0 -1019c0,-33 -27,-60 -60,-60zm-59 1019l-1632 0 0 -898 1632 0 0 898z"/>
   <rect class="fil0" x="920" y="5740" width="93.4708" height="695.116"/>
   <rect class="fil0" x="2265" y="5740" width="79.0121" height="695.116"/>
   <rect class="fil0" x="1081" y="5740" width="93.4708" height="695.116"/>
   <rect class="fil0" x="1436" y="5740" width="93.4708" height="695.116"/>
   <rect class="fil0" x="1767" y="5740" width="79.0121" height="695.116"/>
   <rect class="fil0" x="1902" y="5740" width="79.0121" height="695.116"/>
   <rect class="fil0" x="1592" y="5740" width="131" height="695"/>
   <rect class="fil0" x="1222" y="5740" width="151" height="695"/>
   <rect class="fil0" x="2046" y="5740" width="151" height="695"/>
   <path class="fil0" d="M6972 3589c-181,-126 -399,-198 -631,-198 -138,0 -275,27 -405,78 -107,43 -204,101 -290,170 -28,23 -55,47 -81,73 -25,26 -50,52 -73,80 -75,91 -135,192 -179,300 -104,260 -115,558 -7,839 2,6 5,12 7,18 74,182 189,336 333,453 188,153 425,242 678,246 4,0 8,0 11,0 3,0 5,0 7,0l0 0 0 0c36,0 72,-2 108,-5 40,-4 80,-11 120,-19 47,-10 93,-23 139,-40 13,-4 25,-9 38,-14 58,-23 113,-51 166,-82 23,-14 45,-29 67,-44 11,-8 23,-17 34,-25 33,-26 65,-54 96,-83 32,-31 62,-65 91,-100 38,-48 73,-99 104,-153 20,-36 39,-73 55,-111 119,-276 125,-583 17,-863 -21,-54 -45,-104 -72,-153 -84,-148 -198,-273 -333,-367zm0 316c78,82 141,180 183,291 86,221 81,462 -13,679 -42,98 -99,185 -170,259 -9,10 -19,20 -28,29 -81,78 -177,140 -284,182 -13,6 -26,10 -39,15 -90,31 -184,47 -279,47l0 0c-4,0 -8,-1 -11,-1 -275,-3 -525,-134 -685,-349 -48,-64 -88,-136 -118,-214 -116,-298 -60,-622 118,-860 94,-126 222,-228 377,-289 102,-41 209,-62 318,-62 245,1 470,102 631,273z"/>
  </g>
 </g>
</svg>
